<mxfile host="app.diagrams.net" agent="Mozilla/5.0 (Windows NT 10.0; Win64; x64) AppleWebKit/537.36 (KHTML, like Gecko) Chrome/128.0.0.0 Safari/537.36" version="24.7.14">
  <diagram name="Page-1" id="W-N2-ft23LdGwxmDA5pS">
    <mxGraphModel dx="3999" dy="2153" grid="1" gridSize="10" guides="1" tooltips="1" connect="1" arrows="1" fold="1" page="1" pageScale="1" pageWidth="827" pageHeight="1169" math="0" shadow="0">
      <root>
        <mxCell id="0" />
        <mxCell id="1" parent="0" />
        <mxCell id="WMZ8hW9LC4fwCxA7XKCm-1" value="Khách hàng" style="rounded=0;whiteSpace=wrap;html=1;" parent="1" vertex="1">
          <mxGeometry x="-1116" y="-219" width="76" height="30" as="geometry" />
        </mxCell>
        <mxCell id="jtjuj6bYvUF1e3qMRkPQ-30" style="edgeStyle=orthogonalEdgeStyle;rounded=0;orthogonalLoop=1;jettySize=auto;html=1;exitX=1;exitY=0.5;exitDx=0;exitDy=0;entryX=0.5;entryY=1;entryDx=0;entryDy=0;endArrow=none;endFill=0;" parent="1" source="WMZ8hW9LC4fwCxA7XKCm-9" target="jtjuj6bYvUF1e3qMRkPQ-26" edge="1">
          <mxGeometry relative="1" as="geometry">
            <Array as="points">
              <mxPoint x="-740" y="25" />
              <mxPoint x="-740" y="-140" />
              <mxPoint x="-905" y="-140" />
            </Array>
          </mxGeometry>
        </mxCell>
        <mxCell id="WMZ8hW9LC4fwCxA7XKCm-9" value="Nhân viên" style="rounded=0;whiteSpace=wrap;html=1;" parent="1" vertex="1">
          <mxGeometry x="-938.5" y="10" width="76" height="30" as="geometry" />
        </mxCell>
        <mxCell id="WMZ8hW9LC4fwCxA7XKCm-12" value="&lt;u&gt;&lt;b&gt;maSP&lt;/b&gt;&lt;/u&gt;" style="ellipse;whiteSpace=wrap;html=1;" parent="1" vertex="1">
          <mxGeometry x="105" y="-272" width="70" height="20" as="geometry" />
        </mxCell>
        <mxCell id="WMZ8hW9LC4fwCxA7XKCm-15" style="rounded=0;orthogonalLoop=1;jettySize=auto;html=1;exitX=0.5;exitY=0;exitDx=0;exitDy=0;endArrow=none;endFill=0;entryX=0;entryY=0.5;entryDx=0;entryDy=0;" parent="1" source="WMZ8hW9LC4fwCxA7XKCm-14" target="WMZ8hW9LC4fwCxA7XKCm-12" edge="1">
          <mxGeometry relative="1" as="geometry">
            <mxPoint x="-10" y="-498" as="targetPoint" />
          </mxGeometry>
        </mxCell>
        <mxCell id="WMZ8hW9LC4fwCxA7XKCm-14" value="Sản phẩm" style="rounded=0;whiteSpace=wrap;html=1;" parent="1" vertex="1">
          <mxGeometry x="-16" y="-218" width="76" height="30" as="geometry" />
        </mxCell>
        <mxCell id="VNiQXih7mHSlUXILgsfd-2" value="tenSP" style="ellipse;whiteSpace=wrap;html=1;" parent="1" vertex="1">
          <mxGeometry x="-173" y="-330" width="70" height="20" as="geometry" />
        </mxCell>
        <mxCell id="VNiQXih7mHSlUXILgsfd-3" style="rounded=0;orthogonalLoop=1;jettySize=auto;html=1;exitX=0.5;exitY=0;exitDx=0;exitDy=0;entryX=1;entryY=0.5;entryDx=0;entryDy=0;endArrow=none;endFill=0;" parent="1" source="WMZ8hW9LC4fwCxA7XKCm-14" target="VNiQXih7mHSlUXILgsfd-2" edge="1">
          <mxGeometry relative="1" as="geometry">
            <mxPoint x="40" y="-228" as="sourcePoint" />
          </mxGeometry>
        </mxCell>
        <mxCell id="VNiQXih7mHSlUXILgsfd-24" value="giaBan" style="ellipse;whiteSpace=wrap;html=1;" parent="1" vertex="1">
          <mxGeometry x="105" y="-326" width="70" height="20" as="geometry" />
        </mxCell>
        <mxCell id="VNiQXih7mHSlUXILgsfd-26" style="rounded=0;orthogonalLoop=1;jettySize=auto;html=1;exitX=0.5;exitY=0;exitDx=0;exitDy=0;endArrow=none;endFill=0;entryX=0;entryY=0.5;entryDx=0;entryDy=0;" parent="1" source="WMZ8hW9LC4fwCxA7XKCm-14" target="VNiQXih7mHSlUXILgsfd-24" edge="1">
          <mxGeometry relative="1" as="geometry">
            <mxPoint x="32" y="-208" as="sourcePoint" />
            <mxPoint x="25" y="-318" as="targetPoint" />
          </mxGeometry>
        </mxCell>
        <mxCell id="VNiQXih7mHSlUXILgsfd-28" value="tinhTrang" style="ellipse;whiteSpace=wrap;html=1;" parent="1" vertex="1">
          <mxGeometry x="105" y="-246" width="70" height="20" as="geometry" />
        </mxCell>
        <mxCell id="VNiQXih7mHSlUXILgsfd-30" value="soLuong" style="ellipse;whiteSpace=wrap;html=1;" parent="1" vertex="1">
          <mxGeometry x="104" y="-300" width="70" height="20" as="geometry" />
        </mxCell>
        <mxCell id="VNiQXih7mHSlUXILgsfd-31" value="maLoai" style="ellipse;whiteSpace=wrap;html=1;" parent="1" vertex="1">
          <mxGeometry x="-161" y="-300" width="70" height="20" as="geometry" />
        </mxCell>
        <mxCell id="VNiQXih7mHSlUXILgsfd-32" style="rounded=0;orthogonalLoop=1;jettySize=auto;html=1;exitX=0.5;exitY=0;exitDx=0;exitDy=0;endArrow=none;endFill=0;entryX=1;entryY=0.5;entryDx=0;entryDy=0;" parent="1" source="WMZ8hW9LC4fwCxA7XKCm-14" target="VNiQXih7mHSlUXILgsfd-31" edge="1">
          <mxGeometry relative="1" as="geometry">
            <mxPoint x="32" y="-208" as="sourcePoint" />
            <mxPoint x="-135" y="-308" as="targetPoint" />
          </mxGeometry>
        </mxCell>
        <mxCell id="VNiQXih7mHSlUXILgsfd-33" style="rounded=0;orthogonalLoop=1;jettySize=auto;html=1;exitX=0.5;exitY=0;exitDx=0;exitDy=0;endArrow=none;endFill=0;entryX=0;entryY=0.5;entryDx=0;entryDy=0;" parent="1" source="WMZ8hW9LC4fwCxA7XKCm-14" target="VNiQXih7mHSlUXILgsfd-30" edge="1">
          <mxGeometry relative="1" as="geometry">
            <mxPoint x="32" y="-208" as="sourcePoint" />
            <mxPoint x="-105" y="-368" as="targetPoint" />
          </mxGeometry>
        </mxCell>
        <mxCell id="VNiQXih7mHSlUXILgsfd-40" style="rounded=0;orthogonalLoop=1;jettySize=auto;html=1;exitX=0.5;exitY=0;exitDx=0;exitDy=0;endArrow=none;endFill=0;entryX=0.5;entryY=1;entryDx=0;entryDy=0;" parent="1" source="WMZ8hW9LC4fwCxA7XKCm-1" target="VNiQXih7mHSlUXILgsfd-53" edge="1">
          <mxGeometry relative="1" as="geometry">
            <mxPoint x="-1083" y="-88" as="sourcePoint" />
            <mxPoint x="-1170" y="-218" as="targetPoint" />
          </mxGeometry>
        </mxCell>
        <mxCell id="VNiQXih7mHSlUXILgsfd-41" style="rounded=0;orthogonalLoop=1;jettySize=auto;html=1;exitX=0.5;exitY=0;exitDx=0;exitDy=0;endArrow=none;endFill=0;entryX=0.5;entryY=1;entryDx=0;entryDy=0;" parent="1" source="WMZ8hW9LC4fwCxA7XKCm-1" target="VNiQXih7mHSlUXILgsfd-52" edge="1">
          <mxGeometry relative="1" as="geometry">
            <mxPoint x="-1142" y="-158" as="sourcePoint" />
            <mxPoint x="-1229" y="-288" as="targetPoint" />
          </mxGeometry>
        </mxCell>
        <mxCell id="VNiQXih7mHSlUXILgsfd-44" style="rounded=0;orthogonalLoop=1;jettySize=auto;html=1;exitX=0.5;exitY=0;exitDx=0;exitDy=0;endArrow=none;endFill=0;entryX=0.5;entryY=1;entryDx=0;entryDy=0;" parent="1" source="WMZ8hW9LC4fwCxA7XKCm-1" target="VNiQXih7mHSlUXILgsfd-48" edge="1">
          <mxGeometry relative="1" as="geometry">
            <mxPoint x="-1353" y="-493" as="sourcePoint" />
            <mxPoint x="-1440" y="-623" as="targetPoint" />
          </mxGeometry>
        </mxCell>
        <mxCell id="VNiQXih7mHSlUXILgsfd-45" style="rounded=0;orthogonalLoop=1;jettySize=auto;html=1;exitX=0.5;exitY=0;exitDx=0;exitDy=0;endArrow=none;endFill=0;entryX=0.5;entryY=1;entryDx=0;entryDy=0;" parent="1" source="WMZ8hW9LC4fwCxA7XKCm-1" target="VNiQXih7mHSlUXILgsfd-47" edge="1">
          <mxGeometry relative="1" as="geometry">
            <mxPoint x="-1013" y="-228" as="sourcePoint" />
            <mxPoint x="-1100" y="-358" as="targetPoint" />
          </mxGeometry>
        </mxCell>
        <mxCell id="VNiQXih7mHSlUXILgsfd-46" style="rounded=0;orthogonalLoop=1;jettySize=auto;html=1;endArrow=none;endFill=0;entryX=0;entryY=0.5;entryDx=0;entryDy=0;exitX=0.5;exitY=0;exitDx=0;exitDy=0;" parent="1" source="WMZ8hW9LC4fwCxA7XKCm-14" target="VNiQXih7mHSlUXILgsfd-28" edge="1">
          <mxGeometry relative="1" as="geometry">
            <mxPoint x="20" y="-218" as="sourcePoint" />
            <mxPoint x="60" y="-283" as="targetPoint" />
          </mxGeometry>
        </mxCell>
        <mxCell id="VNiQXih7mHSlUXILgsfd-47" value="&lt;b&gt;&lt;u&gt;maKH&lt;/u&gt;&lt;/b&gt;" style="ellipse;whiteSpace=wrap;html=1;" parent="1" vertex="1">
          <mxGeometry x="-1208" y="-348" width="70" height="20" as="geometry" />
        </mxCell>
        <mxCell id="VNiQXih7mHSlUXILgsfd-48" value="tenKH" style="ellipse;whiteSpace=wrap;html=1;" parent="1" vertex="1">
          <mxGeometry x="-1123" y="-348" width="70" height="20" as="geometry" />
        </mxCell>
        <mxCell id="VNiQXih7mHSlUXILgsfd-50" style="rounded=0;orthogonalLoop=1;jettySize=auto;html=1;exitX=0.5;exitY=0;exitDx=0;exitDy=0;endArrow=none;endFill=0;entryX=0.5;entryY=1;entryDx=0;entryDy=0;" parent="1" source="WMZ8hW9LC4fwCxA7XKCm-1" target="VNiQXih7mHSlUXILgsfd-51" edge="1">
          <mxGeometry relative="1" as="geometry">
            <mxPoint x="-1003" y="-218" as="sourcePoint" />
            <mxPoint x="-1090" y="-348" as="targetPoint" />
          </mxGeometry>
        </mxCell>
        <mxCell id="VNiQXih7mHSlUXILgsfd-51" value="sdt" style="ellipse;whiteSpace=wrap;html=1;" parent="1" vertex="1">
          <mxGeometry x="-1033" y="-348" width="70" height="20" as="geometry" />
        </mxCell>
        <mxCell id="VNiQXih7mHSlUXILgsfd-52" value="tongChi" style="ellipse;whiteSpace=wrap;html=1;" parent="1" vertex="1">
          <mxGeometry x="-1080" y="-328" width="70" height="20" as="geometry" />
        </mxCell>
        <mxCell id="VNiQXih7mHSlUXILgsfd-53" value="tichDiem" style="ellipse;whiteSpace=wrap;html=1;" parent="1" vertex="1">
          <mxGeometry x="-1160" y="-328" width="70" height="20" as="geometry" />
        </mxCell>
        <mxCell id="VNiQXih7mHSlUXILgsfd-54" value="&lt;b&gt;&lt;u&gt;maNV&lt;/u&gt;&lt;/b&gt;" style="ellipse;whiteSpace=wrap;html=1;" parent="1" vertex="1">
          <mxGeometry x="-951.5" y="-120" width="70" height="20" as="geometry" />
        </mxCell>
        <mxCell id="VNiQXih7mHSlUXILgsfd-59" style="rounded=0;orthogonalLoop=1;jettySize=auto;html=1;exitX=0.5;exitY=0;exitDx=0;exitDy=0;endArrow=none;endFill=0;entryX=0.5;entryY=1;entryDx=0;entryDy=0;" parent="1" source="VNiQXih7mHSlUXILgsfd-84" target="VNiQXih7mHSlUXILgsfd-91" edge="1">
          <mxGeometry relative="1" as="geometry">
            <mxPoint x="-1089" y="210" as="sourcePoint" />
            <mxPoint x="-1176" y="80" as="targetPoint" />
          </mxGeometry>
        </mxCell>
        <mxCell id="VNiQXih7mHSlUXILgsfd-60" style="rounded=0;orthogonalLoop=1;jettySize=auto;html=1;exitX=0.5;exitY=0;exitDx=0;exitDy=0;endArrow=none;endFill=0;entryX=0.5;entryY=1;entryDx=0;entryDy=0;" parent="1" source="VNiQXih7mHSlUXILgsfd-84" target="VNiQXih7mHSlUXILgsfd-85" edge="1">
          <mxGeometry relative="1" as="geometry">
            <mxPoint x="-1219" y="160" as="sourcePoint" />
            <mxPoint x="-1306" y="30" as="targetPoint" />
          </mxGeometry>
        </mxCell>
        <mxCell id="VNiQXih7mHSlUXILgsfd-63" style="rounded=0;orthogonalLoop=1;jettySize=auto;html=1;exitX=0.5;exitY=0;exitDx=0;exitDy=0;endArrow=none;endFill=0;entryX=0.5;entryY=1;entryDx=0;entryDy=0;" parent="1" source="WMZ8hW9LC4fwCxA7XKCm-9" target="VNiQXih7mHSlUXILgsfd-77" edge="1">
          <mxGeometry relative="1" as="geometry">
            <mxPoint x="-751.5" y="70" as="sourcePoint" />
            <mxPoint x="-838.5" y="-60" as="targetPoint" />
          </mxGeometry>
        </mxCell>
        <mxCell id="VNiQXih7mHSlUXILgsfd-64" style="rounded=0;orthogonalLoop=1;jettySize=auto;html=1;exitX=0.5;exitY=0;exitDx=0;exitDy=0;endArrow=none;endFill=0;entryX=0.5;entryY=1;entryDx=0;entryDy=0;" parent="1" source="VNiQXih7mHSlUXILgsfd-98" target="VNiQXih7mHSlUXILgsfd-105" edge="1">
          <mxGeometry relative="1" as="geometry">
            <mxPoint x="-917" y="460" as="sourcePoint" />
            <mxPoint x="-1004" y="330" as="targetPoint" />
          </mxGeometry>
        </mxCell>
        <mxCell id="VNiQXih7mHSlUXILgsfd-67" style="rounded=0;orthogonalLoop=1;jettySize=auto;html=1;exitX=0.5;exitY=0;exitDx=0;exitDy=0;endArrow=none;endFill=0;entryX=0.5;entryY=1;entryDx=0;entryDy=0;" parent="1" source="VNiQXih7mHSlUXILgsfd-98" target="VNiQXih7mHSlUXILgsfd-104" edge="1">
          <mxGeometry relative="1" as="geometry">
            <mxPoint x="-867" y="330" as="sourcePoint" />
            <mxPoint x="-954" y="200" as="targetPoint" />
          </mxGeometry>
        </mxCell>
        <mxCell id="VNiQXih7mHSlUXILgsfd-68" style="rounded=0;orthogonalLoop=1;jettySize=auto;html=1;exitX=0.5;exitY=0;exitDx=0;exitDy=0;endArrow=none;endFill=0;entryX=0.5;entryY=1;entryDx=0;entryDy=0;" parent="1" source="VNiQXih7mHSlUXILgsfd-84" target="VNiQXih7mHSlUXILgsfd-89" edge="1">
          <mxGeometry relative="1" as="geometry">
            <mxPoint x="-1319" y="240" as="sourcePoint" />
            <mxPoint x="-1406" y="110" as="targetPoint" />
          </mxGeometry>
        </mxCell>
        <mxCell id="VNiQXih7mHSlUXILgsfd-69" style="rounded=0;orthogonalLoop=1;jettySize=auto;html=1;exitX=0.5;exitY=0;exitDx=0;exitDy=0;endArrow=none;endFill=0;entryX=0.5;entryY=1;entryDx=0;entryDy=0;" parent="1" source="VNiQXih7mHSlUXILgsfd-84" target="VNiQXih7mHSlUXILgsfd-88" edge="1">
          <mxGeometry relative="1" as="geometry">
            <mxPoint x="-893" y="100" as="sourcePoint" />
            <mxPoint x="-1006" y="20" as="targetPoint" />
          </mxGeometry>
        </mxCell>
        <mxCell id="VNiQXih7mHSlUXILgsfd-70" style="rounded=0;orthogonalLoop=1;jettySize=auto;html=1;exitX=0.5;exitY=0;exitDx=0;exitDy=0;endArrow=none;endFill=0;entryX=0.5;entryY=1;entryDx=0;entryDy=0;" parent="1" source="VNiQXih7mHSlUXILgsfd-84" target="VNiQXih7mHSlUXILgsfd-87" edge="1">
          <mxGeometry relative="1" as="geometry">
            <mxPoint x="-883" y="110" as="sourcePoint" />
            <mxPoint x="-1206" y="-40" as="targetPoint" />
          </mxGeometry>
        </mxCell>
        <mxCell id="VNiQXih7mHSlUXILgsfd-71" style="rounded=0;orthogonalLoop=1;jettySize=auto;html=1;exitX=0.5;exitY=0;exitDx=0;exitDy=0;endArrow=none;endFill=0;entryX=0.5;entryY=1;entryDx=0;entryDy=0;" parent="1" source="WMZ8hW9LC4fwCxA7XKCm-9" target="VNiQXih7mHSlUXILgsfd-78" edge="1">
          <mxGeometry relative="1" as="geometry">
            <mxPoint x="-688.5" y="70" as="sourcePoint" />
            <mxPoint x="-775.5" y="-60" as="targetPoint" />
          </mxGeometry>
        </mxCell>
        <mxCell id="VNiQXih7mHSlUXILgsfd-72" style="rounded=0;orthogonalLoop=1;jettySize=auto;html=1;exitX=0.5;exitY=0;exitDx=0;exitDy=0;endArrow=none;endFill=0;entryX=0.5;entryY=1;entryDx=0;entryDy=0;" parent="1" source="WMZ8hW9LC4fwCxA7XKCm-9" target="VNiQXih7mHSlUXILgsfd-75" edge="1">
          <mxGeometry relative="1" as="geometry">
            <mxPoint x="-721.5" y="-10" as="sourcePoint" />
            <mxPoint x="-808.5" y="-140" as="targetPoint" />
          </mxGeometry>
        </mxCell>
        <mxCell id="VNiQXih7mHSlUXILgsfd-73" style="rounded=0;orthogonalLoop=1;jettySize=auto;html=1;exitX=0.5;exitY=0;exitDx=0;exitDy=0;endArrow=none;endFill=0;entryX=0.5;entryY=1;entryDx=0;entryDy=0;" parent="1" source="WMZ8hW9LC4fwCxA7XKCm-9" target="VNiQXih7mHSlUXILgsfd-83" edge="1">
          <mxGeometry relative="1" as="geometry">
            <mxPoint x="-681.5" y="50" as="sourcePoint" />
            <mxPoint x="-768.5" y="-80" as="targetPoint" />
          </mxGeometry>
        </mxCell>
        <mxCell id="VNiQXih7mHSlUXILgsfd-74" style="rounded=0;orthogonalLoop=1;jettySize=auto;html=1;exitX=0.5;exitY=0;exitDx=0;exitDy=0;endArrow=none;endFill=0;entryX=0.5;entryY=1;entryDx=0;entryDy=0;" parent="1" source="WMZ8hW9LC4fwCxA7XKCm-9" target="VNiQXih7mHSlUXILgsfd-54" edge="1">
          <mxGeometry relative="1" as="geometry">
            <mxPoint x="-786.5" y="60" as="sourcePoint" />
            <mxPoint x="-873.5" y="-70" as="targetPoint" />
          </mxGeometry>
        </mxCell>
        <mxCell id="VNiQXih7mHSlUXILgsfd-75" value="tenNV" style="ellipse;whiteSpace=wrap;html=1;" parent="1" vertex="1">
          <mxGeometry x="-909.5" y="-100" width="70" height="20" as="geometry" />
        </mxCell>
        <mxCell id="VNiQXih7mHSlUXILgsfd-77" value="ngaySinh" style="ellipse;whiteSpace=wrap;html=1;" parent="1" vertex="1">
          <mxGeometry x="-862.5" y="-120" width="70" height="20" as="geometry" />
        </mxCell>
        <mxCell id="VNiQXih7mHSlUXILgsfd-78" value="sdt" style="ellipse;whiteSpace=wrap;html=1;" parent="1" vertex="1">
          <mxGeometry x="-1037.5" y="-120" width="70" height="20" as="geometry" />
        </mxCell>
        <mxCell id="VNiQXih7mHSlUXILgsfd-79" style="rounded=0;orthogonalLoop=1;jettySize=auto;html=1;exitX=0.5;exitY=0;exitDx=0;exitDy=0;endArrow=none;endFill=0;entryX=0.5;entryY=1;entryDx=0;entryDy=0;" parent="1" source="WMZ8hW9LC4fwCxA7XKCm-9" target="VNiQXih7mHSlUXILgsfd-80" edge="1">
          <mxGeometry relative="1" as="geometry">
            <mxPoint x="-775.5" y="-120" as="sourcePoint" />
            <mxPoint x="-862.5" y="-250" as="targetPoint" />
          </mxGeometry>
        </mxCell>
        <mxCell id="VNiQXih7mHSlUXILgsfd-80" value="chucVu" style="ellipse;whiteSpace=wrap;html=1;" parent="1" vertex="1">
          <mxGeometry x="-987.5" y="-100" width="70" height="20" as="geometry" />
        </mxCell>
        <mxCell id="VNiQXih7mHSlUXILgsfd-83" value="tinhTrang" style="ellipse;whiteSpace=wrap;html=1;" parent="1" vertex="1">
          <mxGeometry x="-828.5" y="-100" width="70" height="20" as="geometry" />
        </mxCell>
        <mxCell id="VNiQXih7mHSlUXILgsfd-84" value="Tài khoản" style="rounded=0;whiteSpace=wrap;html=1;" parent="1" vertex="1">
          <mxGeometry x="-1224" y="10" width="76" height="30" as="geometry" />
        </mxCell>
        <mxCell id="VNiQXih7mHSlUXILgsfd-85" value="maNV" style="ellipse;whiteSpace=wrap;html=1;" parent="1" vertex="1">
          <mxGeometry x="-1239" y="-100" width="70" height="20" as="geometry" />
        </mxCell>
        <mxCell id="VNiQXih7mHSlUXILgsfd-87" value="maQuyen" style="ellipse;whiteSpace=wrap;html=1;" parent="1" vertex="1">
          <mxGeometry x="-1195" y="-120" width="70" height="20" as="geometry" />
        </mxCell>
        <mxCell id="VNiQXih7mHSlUXILgsfd-88" value="tenDangNhap" style="ellipse;whiteSpace=wrap;html=1;" parent="1" vertex="1">
          <mxGeometry x="-1158" y="-100" width="78" height="20" as="geometry" />
        </mxCell>
        <mxCell id="VNiQXih7mHSlUXILgsfd-89" value="matKhau" style="ellipse;whiteSpace=wrap;html=1;" parent="1" vertex="1">
          <mxGeometry x="-1290" y="-120" width="70" height="20" as="geometry" />
        </mxCell>
        <mxCell id="VNiQXih7mHSlUXILgsfd-91" value="tinhTrang" style="ellipse;whiteSpace=wrap;html=1;" parent="1" vertex="1">
          <mxGeometry x="-1322" y="-100" width="70" height="20" as="geometry" />
        </mxCell>
        <mxCell id="VNiQXih7mHSlUXILgsfd-93" style="rounded=0;orthogonalLoop=1;jettySize=auto;html=1;exitX=0.5;exitY=0;exitDx=0;exitDy=0;endArrow=none;endFill=0;entryX=0.5;entryY=1;entryDx=0;entryDy=0;" parent="1" source="VNiQXih7mHSlUXILgsfd-98" target="VNiQXih7mHSlUXILgsfd-103" edge="1">
          <mxGeometry relative="1" as="geometry">
            <mxPoint x="-937" y="450" as="sourcePoint" />
            <mxPoint x="-1024" y="320" as="targetPoint" />
          </mxGeometry>
        </mxCell>
        <mxCell id="VNiQXih7mHSlUXILgsfd-94" style="rounded=0;orthogonalLoop=1;jettySize=auto;html=1;exitX=0.5;exitY=0;exitDx=0;exitDy=0;endArrow=none;endFill=0;entryX=0.5;entryY=1;entryDx=0;entryDy=0;" parent="1" source="VNiQXih7mHSlUXILgsfd-98" target="VNiQXih7mHSlUXILgsfd-99" edge="1">
          <mxGeometry relative="1" as="geometry">
            <mxPoint x="-1067" y="400" as="sourcePoint" />
            <mxPoint x="-1154" y="270" as="targetPoint" />
          </mxGeometry>
        </mxCell>
        <mxCell id="VNiQXih7mHSlUXILgsfd-95" style="rounded=0;orthogonalLoop=1;jettySize=auto;html=1;exitX=0.5;exitY=0;exitDx=0;exitDy=0;endArrow=none;endFill=0;entryX=0.5;entryY=1;entryDx=0;entryDy=0;" parent="1" source="VNiQXih7mHSlUXILgsfd-98" target="VNiQXih7mHSlUXILgsfd-102" edge="1">
          <mxGeometry relative="1" as="geometry">
            <mxPoint x="-1167" y="480" as="sourcePoint" />
            <mxPoint x="-1254" y="350" as="targetPoint" />
          </mxGeometry>
        </mxCell>
        <mxCell id="VNiQXih7mHSlUXILgsfd-96" style="rounded=0;orthogonalLoop=1;jettySize=auto;html=1;exitX=0.5;exitY=0;exitDx=0;exitDy=0;endArrow=none;endFill=0;entryX=0.5;entryY=1;entryDx=0;entryDy=0;" parent="1" source="VNiQXih7mHSlUXILgsfd-98" target="VNiQXih7mHSlUXILgsfd-101" edge="1">
          <mxGeometry relative="1" as="geometry">
            <mxPoint x="-741" y="340" as="sourcePoint" />
            <mxPoint x="-854" y="260" as="targetPoint" />
          </mxGeometry>
        </mxCell>
        <mxCell id="VNiQXih7mHSlUXILgsfd-97" style="rounded=0;orthogonalLoop=1;jettySize=auto;html=1;exitX=0.5;exitY=0;exitDx=0;exitDy=0;endArrow=none;endFill=0;entryX=0.5;entryY=1;entryDx=0;entryDy=0;" parent="1" source="VNiQXih7mHSlUXILgsfd-98" target="VNiQXih7mHSlUXILgsfd-100" edge="1">
          <mxGeometry relative="1" as="geometry">
            <mxPoint x="-731" y="350" as="sourcePoint" />
            <mxPoint x="-1054" y="200" as="targetPoint" />
          </mxGeometry>
        </mxCell>
        <mxCell id="jtjuj6bYvUF1e3qMRkPQ-65" style="edgeStyle=orthogonalEdgeStyle;rounded=0;orthogonalLoop=1;jettySize=auto;html=1;exitX=1;exitY=0.5;exitDx=0;exitDy=0;entryX=0.5;entryY=1;entryDx=0;entryDy=0;endArrow=none;endFill=0;" parent="1" source="VNiQXih7mHSlUXILgsfd-98" target="jtjuj6bYvUF1e3qMRkPQ-41" edge="1">
          <mxGeometry relative="1" as="geometry">
            <Array as="points">
              <mxPoint x="-910" y="265" />
              <mxPoint x="-910" y="100" />
              <mxPoint x="-1057" y="100" />
            </Array>
          </mxGeometry>
        </mxCell>
        <mxCell id="VNiQXih7mHSlUXILgsfd-98" value="Phân quyền" style="rounded=0;whiteSpace=wrap;html=1;" parent="1" vertex="1">
          <mxGeometry x="-1088" y="246" width="76" height="30" as="geometry" />
        </mxCell>
        <mxCell id="VNiQXih7mHSlUXILgsfd-99" value="&lt;b&gt;&lt;u&gt;maQuyen&lt;/u&gt;&lt;/b&gt;" style="ellipse;whiteSpace=wrap;html=1;" parent="1" vertex="1">
          <mxGeometry x="-1040" y="120" width="70" height="20" as="geometry" />
        </mxCell>
        <mxCell id="VNiQXih7mHSlUXILgsfd-100" value="qLyBH" style="ellipse;whiteSpace=wrap;html=1;" parent="1" vertex="1">
          <mxGeometry x="-1005" y="140" width="70" height="20" as="geometry" />
        </mxCell>
        <mxCell id="VNiQXih7mHSlUXILgsfd-101" value="qLyKH" style="ellipse;whiteSpace=wrap;html=1;" parent="1" vertex="1">
          <mxGeometry x="-1239" y="150" width="70" height="20" as="geometry" />
        </mxCell>
        <mxCell id="VNiQXih7mHSlUXILgsfd-102" value="qLyNH" style="ellipse;whiteSpace=wrap;html=1;" parent="1" vertex="1">
          <mxGeometry x="-1085" y="140" width="70" height="20" as="geometry" />
        </mxCell>
        <mxCell id="VNiQXih7mHSlUXILgsfd-103" value="qLyNV" style="ellipse;whiteSpace=wrap;html=1;" parent="1" vertex="1">
          <mxGeometry x="-1130" y="120" width="70" height="20" as="geometry" />
        </mxCell>
        <mxCell id="VNiQXih7mHSlUXILgsfd-104" value="qLySP" style="ellipse;whiteSpace=wrap;html=1;" parent="1" vertex="1">
          <mxGeometry x="-1164" y="140" width="70" height="20" as="geometry" />
        </mxCell>
        <mxCell id="VNiQXih7mHSlUXILgsfd-105" value="xemThongKe" style="ellipse;whiteSpace=wrap;html=1;" parent="1" vertex="1">
          <mxGeometry x="-1239" y="120" width="106" height="20" as="geometry" />
        </mxCell>
        <mxCell id="VNiQXih7mHSlUXILgsfd-109" style="rounded=0;orthogonalLoop=1;jettySize=auto;html=1;exitX=0.5;exitY=0;exitDx=0;exitDy=0;endArrow=none;endFill=0;entryX=0.5;entryY=1;entryDx=0;entryDy=0;" parent="1" source="VNiQXih7mHSlUXILgsfd-115" target="VNiQXih7mHSlUXILgsfd-121" edge="1">
          <mxGeometry relative="1" as="geometry">
            <mxPoint x="-503" y="-140" as="sourcePoint" />
            <mxPoint x="-590" y="-270" as="targetPoint" />
          </mxGeometry>
        </mxCell>
        <mxCell id="VNiQXih7mHSlUXILgsfd-110" style="rounded=0;orthogonalLoop=1;jettySize=auto;html=1;exitX=0.5;exitY=0;exitDx=0;exitDy=0;endArrow=none;endFill=0;entryX=0.5;entryY=1;entryDx=0;entryDy=0;" parent="1" source="VNiQXih7mHSlUXILgsfd-115" target="VNiQXih7mHSlUXILgsfd-120" edge="1">
          <mxGeometry relative="1" as="geometry">
            <mxPoint x="-573" y="-20" as="sourcePoint" />
            <mxPoint x="-660" y="-150" as="targetPoint" />
          </mxGeometry>
        </mxCell>
        <mxCell id="VNiQXih7mHSlUXILgsfd-111" style="rounded=0;orthogonalLoop=1;jettySize=auto;html=1;exitX=0.5;exitY=0;exitDx=0;exitDy=0;endArrow=none;endFill=0;entryX=0.5;entryY=1;entryDx=0;entryDy=0;" parent="1" source="VNiQXih7mHSlUXILgsfd-115" target="VNiQXih7mHSlUXILgsfd-116" edge="1">
          <mxGeometry relative="1" as="geometry">
            <mxPoint x="-703" y="-70" as="sourcePoint" />
            <mxPoint x="-790" y="-200" as="targetPoint" />
          </mxGeometry>
        </mxCell>
        <mxCell id="VNiQXih7mHSlUXILgsfd-112" style="rounded=0;orthogonalLoop=1;jettySize=auto;html=1;exitX=0.5;exitY=0;exitDx=0;exitDy=0;endArrow=none;endFill=0;entryX=0.5;entryY=1;entryDx=0;entryDy=0;" parent="1" source="VNiQXih7mHSlUXILgsfd-115" target="VNiQXih7mHSlUXILgsfd-119" edge="1">
          <mxGeometry relative="1" as="geometry">
            <mxPoint x="-803" y="10" as="sourcePoint" />
            <mxPoint x="-890" y="-120" as="targetPoint" />
          </mxGeometry>
        </mxCell>
        <mxCell id="VNiQXih7mHSlUXILgsfd-113" style="rounded=0;orthogonalLoop=1;jettySize=auto;html=1;exitX=0.5;exitY=0;exitDx=0;exitDy=0;endArrow=none;endFill=0;entryX=0.5;entryY=1;entryDx=0;entryDy=0;" parent="1" source="VNiQXih7mHSlUXILgsfd-115" target="VNiQXih7mHSlUXILgsfd-118" edge="1">
          <mxGeometry relative="1" as="geometry">
            <mxPoint x="-377" y="-130" as="sourcePoint" />
            <mxPoint x="-490" y="-210" as="targetPoint" />
          </mxGeometry>
        </mxCell>
        <mxCell id="VNiQXih7mHSlUXILgsfd-114" style="rounded=0;orthogonalLoop=1;jettySize=auto;html=1;exitX=0.5;exitY=0;exitDx=0;exitDy=0;endArrow=none;endFill=0;entryX=0.5;entryY=1;entryDx=0;entryDy=0;" parent="1" source="VNiQXih7mHSlUXILgsfd-115" target="VNiQXih7mHSlUXILgsfd-117" edge="1">
          <mxGeometry relative="1" as="geometry">
            <mxPoint x="-367" y="-120" as="sourcePoint" />
            <mxPoint x="-690" y="-270" as="targetPoint" />
          </mxGeometry>
        </mxCell>
        <mxCell id="VNiQXih7mHSlUXILgsfd-115" value="Hóa đơn" style="rounded=0;whiteSpace=wrap;html=1;" parent="1" vertex="1">
          <mxGeometry x="-730" y="-220" width="76" height="30" as="geometry" />
        </mxCell>
        <mxCell id="VNiQXih7mHSlUXILgsfd-116" value="&lt;b&gt;&lt;u&gt;maHD&lt;/u&gt;&lt;/b&gt;" style="ellipse;whiteSpace=wrap;html=1;" parent="1" vertex="1">
          <mxGeometry x="-743" y="-330" width="70" height="20" as="geometry" />
        </mxCell>
        <mxCell id="VNiQXih7mHSlUXILgsfd-117" value="maNV" style="ellipse;whiteSpace=wrap;html=1;" parent="1" vertex="1">
          <mxGeometry x="-698" y="-350" width="70" height="20" as="geometry" />
        </mxCell>
        <mxCell id="VNiQXih7mHSlUXILgsfd-118" value="maKH" style="ellipse;whiteSpace=wrap;html=1;" parent="1" vertex="1">
          <mxGeometry x="-660" y="-330" width="70" height="20" as="geometry" />
        </mxCell>
        <mxCell id="VNiQXih7mHSlUXILgsfd-119" value="ngayLap" style="ellipse;whiteSpace=wrap;html=1;" parent="1" vertex="1">
          <mxGeometry x="-793" y="-350" width="70" height="20" as="geometry" />
        </mxCell>
        <mxCell id="VNiQXih7mHSlUXILgsfd-120" value="tongTien" style="ellipse;whiteSpace=wrap;html=1;" parent="1" vertex="1">
          <mxGeometry x="-826" y="-330" width="70" height="20" as="geometry" />
        </mxCell>
        <mxCell id="VNiQXih7mHSlUXILgsfd-121" value="tinhTrang" style="ellipse;whiteSpace=wrap;html=1;" parent="1" vertex="1">
          <mxGeometry x="-883" y="-350" width="70" height="20" as="geometry" />
        </mxCell>
        <mxCell id="VNiQXih7mHSlUXILgsfd-124" style="rounded=0;orthogonalLoop=1;jettySize=auto;html=1;exitX=0.5;exitY=0;exitDx=0;exitDy=0;endArrow=none;endFill=0;entryX=0.5;entryY=1;entryDx=0;entryDy=0;" parent="1" source="VNiQXih7mHSlUXILgsfd-130" target="VNiQXih7mHSlUXILgsfd-136" edge="1">
          <mxGeometry relative="1" as="geometry">
            <mxPoint x="-191" y="-140" as="sourcePoint" />
            <mxPoint x="-278" y="-270" as="targetPoint" />
          </mxGeometry>
        </mxCell>
        <mxCell id="VNiQXih7mHSlUXILgsfd-125" style="rounded=0;orthogonalLoop=1;jettySize=auto;html=1;exitX=0.5;exitY=0;exitDx=0;exitDy=0;endArrow=none;endFill=0;entryX=0.5;entryY=1;entryDx=0;entryDy=0;" parent="1" source="VNiQXih7mHSlUXILgsfd-130" target="VNiQXih7mHSlUXILgsfd-135" edge="1">
          <mxGeometry relative="1" as="geometry">
            <mxPoint x="-261" y="-20" as="sourcePoint" />
            <mxPoint x="-348" y="-150" as="targetPoint" />
          </mxGeometry>
        </mxCell>
        <mxCell id="VNiQXih7mHSlUXILgsfd-126" style="rounded=0;orthogonalLoop=1;jettySize=auto;html=1;exitX=0.5;exitY=0;exitDx=0;exitDy=0;endArrow=none;endFill=0;entryX=0.5;entryY=1;entryDx=0;entryDy=0;" parent="1" source="VNiQXih7mHSlUXILgsfd-130" target="VNiQXih7mHSlUXILgsfd-131" edge="1">
          <mxGeometry relative="1" as="geometry">
            <mxPoint x="-391" y="-70" as="sourcePoint" />
            <mxPoint x="-478" y="-200" as="targetPoint" />
          </mxGeometry>
        </mxCell>
        <mxCell id="VNiQXih7mHSlUXILgsfd-127" style="rounded=0;orthogonalLoop=1;jettySize=auto;html=1;exitX=0.5;exitY=0;exitDx=0;exitDy=0;endArrow=none;endFill=0;entryX=0.5;entryY=1;entryDx=0;entryDy=0;" parent="1" source="VNiQXih7mHSlUXILgsfd-130" target="VNiQXih7mHSlUXILgsfd-134" edge="1">
          <mxGeometry relative="1" as="geometry">
            <mxPoint x="-491" y="10" as="sourcePoint" />
            <mxPoint x="-533" y="-210" as="targetPoint" />
          </mxGeometry>
        </mxCell>
        <mxCell id="VNiQXih7mHSlUXILgsfd-128" style="rounded=0;orthogonalLoop=1;jettySize=auto;html=1;exitX=0.5;exitY=0;exitDx=0;exitDy=0;endArrow=none;endFill=0;entryX=0.5;entryY=1;entryDx=0;entryDy=0;" parent="1" source="VNiQXih7mHSlUXILgsfd-130" target="VNiQXih7mHSlUXILgsfd-133" edge="1">
          <mxGeometry relative="1" as="geometry">
            <mxPoint x="-65" y="-130" as="sourcePoint" />
            <mxPoint x="-178" y="-210" as="targetPoint" />
          </mxGeometry>
        </mxCell>
        <mxCell id="VNiQXih7mHSlUXILgsfd-129" style="rounded=0;orthogonalLoop=1;jettySize=auto;html=1;exitX=0.5;exitY=0;exitDx=0;exitDy=0;endArrow=none;endFill=0;entryX=0.5;entryY=1;entryDx=0;entryDy=0;" parent="1" source="VNiQXih7mHSlUXILgsfd-130" target="VNiQXih7mHSlUXILgsfd-132" edge="1">
          <mxGeometry relative="1" as="geometry">
            <mxPoint x="-55" y="-120" as="sourcePoint" />
            <mxPoint x="-378" y="-270" as="targetPoint" />
          </mxGeometry>
        </mxCell>
        <mxCell id="VNiQXih7mHSlUXILgsfd-130" value="CT_Hóa đơn" style="rounded=0;whiteSpace=wrap;html=1;" parent="1" vertex="1">
          <mxGeometry x="-418" y="-220" width="76" height="30" as="geometry" />
        </mxCell>
        <mxCell id="VNiQXih7mHSlUXILgsfd-131" value="&lt;b&gt;&lt;u&gt;maHD&lt;/u&gt;&lt;/b&gt;" style="ellipse;whiteSpace=wrap;html=1;" parent="1" vertex="1">
          <mxGeometry x="-392" y="-330" width="70" height="20" as="geometry" />
        </mxCell>
        <mxCell id="VNiQXih7mHSlUXILgsfd-132" value="&lt;b&gt;&lt;u&gt;maSP&lt;/u&gt;&lt;/b&gt;" style="ellipse;whiteSpace=wrap;html=1;" parent="1" vertex="1">
          <mxGeometry x="-348" y="-350" width="70" height="20" as="geometry" />
        </mxCell>
        <mxCell id="VNiQXih7mHSlUXILgsfd-133" value="soLuong" style="ellipse;whiteSpace=wrap;html=1;" parent="1" vertex="1">
          <mxGeometry x="-315" y="-330" width="70" height="20" as="geometry" />
        </mxCell>
        <mxCell id="VNiQXih7mHSlUXILgsfd-134" value="giaBan" style="ellipse;whiteSpace=wrap;html=1;" parent="1" vertex="1">
          <mxGeometry x="-430" y="-350" width="70" height="20" as="geometry" />
        </mxCell>
        <mxCell id="VNiQXih7mHSlUXILgsfd-135" value="tongTien" style="ellipse;whiteSpace=wrap;html=1;" parent="1" vertex="1">
          <mxGeometry x="-466" y="-330" width="70" height="20" as="geometry" />
        </mxCell>
        <mxCell id="VNiQXih7mHSlUXILgsfd-136" value="maKM" style="ellipse;whiteSpace=wrap;html=1;" parent="1" vertex="1">
          <mxGeometry x="-534" y="-350" width="84" height="20" as="geometry" />
        </mxCell>
        <mxCell id="VNiQXih7mHSlUXILgsfd-138" style="rounded=0;orthogonalLoop=1;jettySize=auto;html=1;exitX=1;exitY=0.5;exitDx=0;exitDy=0;endArrow=none;endFill=0;entryX=0;entryY=0.5;entryDx=0;entryDy=0;" parent="1" source="VNiQXih7mHSlUXILgsfd-145" target="VNiQXih7mHSlUXILgsfd-152" edge="1">
          <mxGeometry relative="1" as="geometry">
            <mxPoint x="821.5" y="-8" as="sourcePoint" />
            <mxPoint x="734.5" y="-138" as="targetPoint" />
          </mxGeometry>
        </mxCell>
        <mxCell id="VNiQXih7mHSlUXILgsfd-140" style="rounded=0;orthogonalLoop=1;jettySize=auto;html=1;exitX=1;exitY=0.5;exitDx=0;exitDy=0;endArrow=none;endFill=0;entryX=0;entryY=0.5;entryDx=0;entryDy=0;" parent="1" source="VNiQXih7mHSlUXILgsfd-145" target="VNiQXih7mHSlUXILgsfd-150" edge="1">
          <mxGeometry relative="1" as="geometry">
            <mxPoint x="801.5" y="-18" as="sourcePoint" />
            <mxPoint x="714.5" y="-148" as="targetPoint" />
          </mxGeometry>
        </mxCell>
        <mxCell id="VNiQXih7mHSlUXILgsfd-141" style="rounded=0;orthogonalLoop=1;jettySize=auto;html=1;exitX=1;exitY=0.5;exitDx=0;exitDy=0;endArrow=none;endFill=0;entryX=0;entryY=0.5;entryDx=0;entryDy=0;" parent="1" source="VNiQXih7mHSlUXILgsfd-145" target="VNiQXih7mHSlUXILgsfd-146" edge="1">
          <mxGeometry relative="1" as="geometry">
            <mxPoint x="671.5" y="-68" as="sourcePoint" />
            <mxPoint x="584.5" y="-198" as="targetPoint" />
          </mxGeometry>
        </mxCell>
        <mxCell id="VNiQXih7mHSlUXILgsfd-142" style="rounded=0;orthogonalLoop=1;jettySize=auto;html=1;exitX=1;exitY=0.5;exitDx=0;exitDy=0;endArrow=none;endFill=0;entryX=0;entryY=0.5;entryDx=0;entryDy=0;" parent="1" source="VNiQXih7mHSlUXILgsfd-145" target="VNiQXih7mHSlUXILgsfd-149" edge="1">
          <mxGeometry relative="1" as="geometry">
            <mxPoint x="571.5" y="12" as="sourcePoint" />
            <mxPoint x="484.5" y="-118" as="targetPoint" />
          </mxGeometry>
        </mxCell>
        <mxCell id="VNiQXih7mHSlUXILgsfd-143" style="rounded=0;orthogonalLoop=1;jettySize=auto;html=1;exitX=1;exitY=0.5;exitDx=0;exitDy=0;endArrow=none;endFill=0;entryX=0;entryY=0.5;entryDx=0;entryDy=0;" parent="1" source="VNiQXih7mHSlUXILgsfd-145" target="VNiQXih7mHSlUXILgsfd-148" edge="1">
          <mxGeometry relative="1" as="geometry">
            <mxPoint x="997.5" y="-128" as="sourcePoint" />
            <mxPoint x="884.5" y="-208" as="targetPoint" />
          </mxGeometry>
        </mxCell>
        <mxCell id="VNiQXih7mHSlUXILgsfd-144" style="rounded=0;orthogonalLoop=1;jettySize=auto;html=1;exitX=1;exitY=0.5;exitDx=0;exitDy=0;endArrow=none;endFill=0;entryX=0;entryY=0.5;entryDx=0;entryDy=0;" parent="1" source="VNiQXih7mHSlUXILgsfd-145" target="VNiQXih7mHSlUXILgsfd-147" edge="1">
          <mxGeometry relative="1" as="geometry">
            <mxPoint x="1007.5" y="-118" as="sourcePoint" />
            <mxPoint x="684.5" y="-268" as="targetPoint" />
          </mxGeometry>
        </mxCell>
        <mxCell id="VNiQXih7mHSlUXILgsfd-145" value="Phiếu nhập" style="rounded=0;whiteSpace=wrap;html=1;" parent="1" vertex="1">
          <mxGeometry x="321" y="130" width="76" height="30" as="geometry" />
        </mxCell>
        <mxCell id="VNiQXih7mHSlUXILgsfd-146" value="&lt;u&gt;&lt;b&gt;maPN&lt;/b&gt;&lt;/u&gt;" style="ellipse;whiteSpace=wrap;html=1;" parent="1" vertex="1">
          <mxGeometry x="480" y="90" width="70" height="20" as="geometry" />
        </mxCell>
        <mxCell id="VNiQXih7mHSlUXILgsfd-147" value="maNCC" style="ellipse;whiteSpace=wrap;html=1;" parent="1" vertex="1">
          <mxGeometry x="480" y="130" width="70" height="20" as="geometry" />
        </mxCell>
        <mxCell id="VNiQXih7mHSlUXILgsfd-148" value="maNV" style="ellipse;whiteSpace=wrap;html=1;" parent="1" vertex="1">
          <mxGeometry x="480" y="160" width="70" height="20" as="geometry" />
        </mxCell>
        <mxCell id="VNiQXih7mHSlUXILgsfd-149" value="ngayLap" style="ellipse;whiteSpace=wrap;html=1;" parent="1" vertex="1">
          <mxGeometry x="480" y="60" width="70" height="20" as="geometry" />
        </mxCell>
        <mxCell id="VNiQXih7mHSlUXILgsfd-150" value="tongTien" style="ellipse;whiteSpace=wrap;html=1;" parent="1" vertex="1">
          <mxGeometry x="485" y="30" width="70" height="20" as="geometry" />
        </mxCell>
        <mxCell id="VNiQXih7mHSlUXILgsfd-152" value="tinhTrang" style="ellipse;whiteSpace=wrap;html=1;" parent="1" vertex="1">
          <mxGeometry x="480" width="80" height="20" as="geometry" />
        </mxCell>
        <mxCell id="VNiQXih7mHSlUXILgsfd-153" style="rounded=0;orthogonalLoop=1;jettySize=auto;html=1;exitX=0.5;exitY=0;exitDx=0;exitDy=0;endArrow=none;endFill=0;entryX=0.5;entryY=1;entryDx=0;entryDy=0;" parent="1" source="VNiQXih7mHSlUXILgsfd-160" target="VNiQXih7mHSlUXILgsfd-167" edge="1">
          <mxGeometry relative="1" as="geometry">
            <mxPoint x="496" y="-16" as="sourcePoint" />
            <mxPoint x="409" y="-146" as="targetPoint" />
          </mxGeometry>
        </mxCell>
        <mxCell id="VNiQXih7mHSlUXILgsfd-156" style="rounded=0;orthogonalLoop=1;jettySize=auto;html=1;exitX=0.5;exitY=0;exitDx=0;exitDy=0;endArrow=none;endFill=0;entryX=0.5;entryY=1;entryDx=0;entryDy=0;" parent="1" source="VNiQXih7mHSlUXILgsfd-160" target="VNiQXih7mHSlUXILgsfd-161" edge="1">
          <mxGeometry relative="1" as="geometry">
            <mxPoint x="346" y="-76" as="sourcePoint" />
            <mxPoint x="259" y="-206" as="targetPoint" />
          </mxGeometry>
        </mxCell>
        <mxCell id="VNiQXih7mHSlUXILgsfd-157" style="rounded=0;orthogonalLoop=1;jettySize=auto;html=1;exitX=0.5;exitY=0;exitDx=0;exitDy=0;endArrow=none;endFill=0;entryX=0.5;entryY=1;entryDx=0;entryDy=0;" parent="1" source="VNiQXih7mHSlUXILgsfd-160" target="VNiQXih7mHSlUXILgsfd-164" edge="1">
          <mxGeometry relative="1" as="geometry">
            <mxPoint x="246" y="4" as="sourcePoint" />
            <mxPoint x="159" y="-126" as="targetPoint" />
          </mxGeometry>
        </mxCell>
        <mxCell id="VNiQXih7mHSlUXILgsfd-158" style="rounded=0;orthogonalLoop=1;jettySize=auto;html=1;exitX=0.5;exitY=0;exitDx=0;exitDy=0;endArrow=none;endFill=0;entryX=0.5;entryY=1;entryDx=0;entryDy=0;" parent="1" source="VNiQXih7mHSlUXILgsfd-160" target="VNiQXih7mHSlUXILgsfd-163" edge="1">
          <mxGeometry relative="1" as="geometry">
            <mxPoint x="672" y="-136" as="sourcePoint" />
            <mxPoint x="559" y="-216" as="targetPoint" />
          </mxGeometry>
        </mxCell>
        <mxCell id="VNiQXih7mHSlUXILgsfd-159" style="rounded=0;orthogonalLoop=1;jettySize=auto;html=1;exitX=0.5;exitY=0;exitDx=0;exitDy=0;endArrow=none;endFill=0;entryX=0.5;entryY=1;entryDx=0;entryDy=0;" parent="1" source="VNiQXih7mHSlUXILgsfd-160" target="VNiQXih7mHSlUXILgsfd-162" edge="1">
          <mxGeometry relative="1" as="geometry">
            <mxPoint x="682" y="-126" as="sourcePoint" />
            <mxPoint x="359" y="-276" as="targetPoint" />
          </mxGeometry>
        </mxCell>
        <mxCell id="VNiQXih7mHSlUXILgsfd-160" value="CT_Phiếu nhập" style="rounded=0;whiteSpace=wrap;html=1;" parent="1" vertex="1">
          <mxGeometry x="319" y="-223" width="80" height="40" as="geometry" />
        </mxCell>
        <mxCell id="VNiQXih7mHSlUXILgsfd-161" value="&lt;b&gt;&lt;u&gt;maPN&lt;/u&gt;&lt;/b&gt;" style="ellipse;whiteSpace=wrap;html=1;" parent="1" vertex="1">
          <mxGeometry x="319" y="-326" width="70" height="20" as="geometry" />
        </mxCell>
        <mxCell id="VNiQXih7mHSlUXILgsfd-162" value="&lt;u&gt;&lt;b&gt;maSP&lt;/b&gt;&lt;/u&gt;" style="ellipse;whiteSpace=wrap;html=1;" parent="1" vertex="1">
          <mxGeometry x="362" y="-346" width="70" height="20" as="geometry" />
        </mxCell>
        <mxCell id="VNiQXih7mHSlUXILgsfd-163" value="soLuong" style="ellipse;whiteSpace=wrap;html=1;" parent="1" vertex="1">
          <mxGeometry x="402" y="-326" width="70" height="20" as="geometry" />
        </mxCell>
        <mxCell id="VNiQXih7mHSlUXILgsfd-164" value="giaNhap" style="ellipse;whiteSpace=wrap;html=1;" parent="1" vertex="1">
          <mxGeometry x="274" y="-346" width="70" height="20" as="geometry" />
        </mxCell>
        <mxCell id="VNiQXih7mHSlUXILgsfd-167" value="tinhTrang" style="ellipse;whiteSpace=wrap;html=1;" parent="1" vertex="1">
          <mxGeometry x="242" y="-326" width="70" height="20" as="geometry" />
        </mxCell>
        <mxCell id="VNiQXih7mHSlUXILgsfd-170" value="img" style="ellipse;whiteSpace=wrap;html=1;" parent="1" vertex="1">
          <mxGeometry x="-159" y="-272" width="70" height="20" as="geometry" />
        </mxCell>
        <mxCell id="VNiQXih7mHSlUXILgsfd-171" style="rounded=0;orthogonalLoop=1;jettySize=auto;html=1;exitX=0.5;exitY=0;exitDx=0;exitDy=0;endArrow=none;endFill=0;entryX=1;entryY=0.5;entryDx=0;entryDy=0;" parent="1" source="WMZ8hW9LC4fwCxA7XKCm-14" target="VNiQXih7mHSlUXILgsfd-170" edge="1">
          <mxGeometry relative="1" as="geometry">
            <mxPoint x="32" y="-208" as="sourcePoint" />
            <mxPoint x="-145" y="-183" as="targetPoint" />
          </mxGeometry>
        </mxCell>
        <mxCell id="VNiQXih7mHSlUXILgsfd-184" value="diaChi" style="ellipse;whiteSpace=wrap;html=1;" parent="1" vertex="1">
          <mxGeometry x="154" y="410" width="70" height="20" as="geometry" />
        </mxCell>
        <mxCell id="VNiQXih7mHSlUXILgsfd-185" style="rounded=0;orthogonalLoop=1;jettySize=auto;html=1;exitX=0;exitY=0.5;exitDx=0;exitDy=0;endArrow=none;endFill=0;entryX=1;entryY=0.5;entryDx=0;entryDy=0;" parent="1" source="VNiQXih7mHSlUXILgsfd-186" target="VNiQXih7mHSlUXILgsfd-184" edge="1">
          <mxGeometry relative="1" as="geometry">
            <mxPoint x="650" y="-250" as="targetPoint" />
          </mxGeometry>
        </mxCell>
        <mxCell id="VNiQXih7mHSlUXILgsfd-186" value="Nhà cung cấp" style="rounded=0;whiteSpace=wrap;html=1;" parent="1" vertex="1">
          <mxGeometry x="319" y="370" width="76" height="30" as="geometry" />
        </mxCell>
        <mxCell id="VNiQXih7mHSlUXILgsfd-189" value="tinhTrang" style="ellipse;whiteSpace=wrap;html=1;" parent="1" vertex="1">
          <mxGeometry x="154" y="440" width="70" height="20" as="geometry" />
        </mxCell>
        <mxCell id="VNiQXih7mHSlUXILgsfd-190" style="rounded=0;orthogonalLoop=1;jettySize=auto;html=1;exitX=0;exitY=0.5;exitDx=0;exitDy=0;endArrow=none;endFill=0;entryX=1;entryY=0.5;entryDx=0;entryDy=0;" parent="1" source="VNiQXih7mHSlUXILgsfd-186" target="VNiQXih7mHSlUXILgsfd-189" edge="1">
          <mxGeometry relative="1" as="geometry">
            <mxPoint x="692" y="40" as="sourcePoint" />
            <mxPoint x="685" y="-70" as="targetPoint" />
          </mxGeometry>
        </mxCell>
        <mxCell id="VNiQXih7mHSlUXILgsfd-191" value="sdt" style="ellipse;whiteSpace=wrap;html=1;" parent="1" vertex="1">
          <mxGeometry x="154" y="380" width="70" height="20" as="geometry" />
        </mxCell>
        <mxCell id="VNiQXih7mHSlUXILgsfd-193" value="tenNCC" style="ellipse;whiteSpace=wrap;html=1;" parent="1" vertex="1">
          <mxGeometry x="154" y="350" width="70" height="20" as="geometry" />
        </mxCell>
        <mxCell id="VNiQXih7mHSlUXILgsfd-194" value="&lt;u&gt;&lt;b&gt;maNCC&lt;/b&gt;&lt;/u&gt;" style="ellipse;whiteSpace=wrap;html=1;" parent="1" vertex="1">
          <mxGeometry x="154" y="320" width="70" height="20" as="geometry" />
        </mxCell>
        <mxCell id="VNiQXih7mHSlUXILgsfd-195" style="rounded=0;orthogonalLoop=1;jettySize=auto;html=1;exitX=0;exitY=0.5;exitDx=0;exitDy=0;endArrow=none;endFill=0;entryX=1;entryY=0.5;entryDx=0;entryDy=0;" parent="1" source="VNiQXih7mHSlUXILgsfd-186" target="VNiQXih7mHSlUXILgsfd-194" edge="1">
          <mxGeometry relative="1" as="geometry">
            <mxPoint x="692" y="40" as="sourcePoint" />
            <mxPoint x="525" y="-60" as="targetPoint" />
          </mxGeometry>
        </mxCell>
        <mxCell id="VNiQXih7mHSlUXILgsfd-196" style="rounded=0;orthogonalLoop=1;jettySize=auto;html=1;exitX=0;exitY=0.5;exitDx=0;exitDy=0;endArrow=none;endFill=0;entryX=1;entryY=0.5;entryDx=0;entryDy=0;" parent="1" source="VNiQXih7mHSlUXILgsfd-186" target="VNiQXih7mHSlUXILgsfd-193" edge="1">
          <mxGeometry relative="1" as="geometry">
            <mxPoint x="692" y="40" as="sourcePoint" />
            <mxPoint x="555" y="-120" as="targetPoint" />
          </mxGeometry>
        </mxCell>
        <mxCell id="VNiQXih7mHSlUXILgsfd-198" style="rounded=0;orthogonalLoop=1;jettySize=auto;html=1;endArrow=none;endFill=0;entryX=1;entryY=0.5;entryDx=0;entryDy=0;exitX=0;exitY=0.5;exitDx=0;exitDy=0;" parent="1" source="VNiQXih7mHSlUXILgsfd-186" target="VNiQXih7mHSlUXILgsfd-191" edge="1">
          <mxGeometry relative="1" as="geometry">
            <mxPoint x="680" y="30" as="sourcePoint" />
            <mxPoint x="720" y="-35" as="targetPoint" />
          </mxGeometry>
        </mxCell>
        <mxCell id="jtjuj6bYvUF1e3qMRkPQ-68" style="edgeStyle=orthogonalEdgeStyle;rounded=0;orthogonalLoop=1;jettySize=auto;html=1;entryX=0.5;entryY=0;entryDx=0;entryDy=0;exitX=0.5;exitY=1;exitDx=0;exitDy=0;endArrow=none;endFill=0;" parent="1" source="jtjuj6bYvUF1e3qMRkPQ-71" target="WMZ8hW9LC4fwCxA7XKCm-14" edge="1">
          <mxGeometry relative="1" as="geometry">
            <mxPoint x="-2" y="-290" as="sourcePoint" />
            <Array as="points">
              <mxPoint x="-2" y="-290" />
              <mxPoint x="22" y="-290" />
            </Array>
          </mxGeometry>
        </mxCell>
        <mxCell id="VNiQXih7mHSlUXILgsfd-203" value="Loại sản phẩm" style="rounded=0;whiteSpace=wrap;html=1;" parent="1" vertex="1">
          <mxGeometry x="-40" y="-440" width="76" height="30" as="geometry" />
        </mxCell>
        <mxCell id="VNiQXih7mHSlUXILgsfd-204" value="tinhTrang" style="ellipse;whiteSpace=wrap;html=1;" parent="1" vertex="1">
          <mxGeometry x="-73" y="-550" width="70" height="20" as="geometry" />
        </mxCell>
        <mxCell id="VNiQXih7mHSlUXILgsfd-205" style="rounded=0;orthogonalLoop=1;jettySize=auto;html=1;exitX=0.5;exitY=0;exitDx=0;exitDy=0;endArrow=none;endFill=0;entryX=0.5;entryY=1;entryDx=0;entryDy=0;" parent="1" source="VNiQXih7mHSlUXILgsfd-203" target="VNiQXih7mHSlUXILgsfd-204" edge="1">
          <mxGeometry relative="1" as="geometry">
            <mxPoint x="8" y="-430" as="sourcePoint" />
            <mxPoint x="1" y="-540" as="targetPoint" />
          </mxGeometry>
        </mxCell>
        <mxCell id="VNiQXih7mHSlUXILgsfd-207" value="tenLoai" style="ellipse;whiteSpace=wrap;html=1;" parent="1" vertex="1">
          <mxGeometry x="5" y="-550" width="70" height="20" as="geometry" />
        </mxCell>
        <mxCell id="VNiQXih7mHSlUXILgsfd-208" value="&lt;b&gt;&lt;u&gt;maLoai&lt;/u&gt;&lt;/b&gt;" style="ellipse;whiteSpace=wrap;html=1;" parent="1" vertex="1">
          <mxGeometry x="-34" y="-584" width="70" height="20" as="geometry" />
        </mxCell>
        <mxCell id="VNiQXih7mHSlUXILgsfd-209" style="rounded=0;orthogonalLoop=1;jettySize=auto;html=1;exitX=0.5;exitY=0;exitDx=0;exitDy=0;endArrow=none;endFill=0;entryX=0.5;entryY=1;entryDx=0;entryDy=0;" parent="1" source="VNiQXih7mHSlUXILgsfd-203" target="VNiQXih7mHSlUXILgsfd-208" edge="1">
          <mxGeometry relative="1" as="geometry">
            <mxPoint x="8" y="-430" as="sourcePoint" />
            <mxPoint x="-159" y="-530" as="targetPoint" />
          </mxGeometry>
        </mxCell>
        <mxCell id="VNiQXih7mHSlUXILgsfd-210" style="rounded=0;orthogonalLoop=1;jettySize=auto;html=1;exitX=0.5;exitY=0;exitDx=0;exitDy=0;endArrow=none;endFill=0;entryX=0.5;entryY=1;entryDx=0;entryDy=0;" parent="1" source="VNiQXih7mHSlUXILgsfd-203" target="VNiQXih7mHSlUXILgsfd-207" edge="1">
          <mxGeometry relative="1" as="geometry">
            <mxPoint x="8" y="-430" as="sourcePoint" />
            <mxPoint x="-129" y="-590" as="targetPoint" />
          </mxGeometry>
        </mxCell>
        <mxCell id="VNiQXih7mHSlUXILgsfd-212" value="ngayBD" style="ellipse;whiteSpace=wrap;html=1;" parent="1" vertex="1">
          <mxGeometry x="-370" y="-102" width="70" height="20" as="geometry" />
        </mxCell>
        <mxCell id="VNiQXih7mHSlUXILgsfd-213" style="rounded=0;orthogonalLoop=1;jettySize=auto;html=1;exitX=0.5;exitY=0;exitDx=0;exitDy=0;endArrow=none;endFill=0;entryX=0.5;entryY=1;entryDx=0;entryDy=0;" parent="1" source="VNiQXih7mHSlUXILgsfd-214" target="VNiQXih7mHSlUXILgsfd-212" edge="1">
          <mxGeometry relative="1" as="geometry">
            <mxPoint x="-410" y="-252" as="targetPoint" />
          </mxGeometry>
        </mxCell>
        <mxCell id="VNiQXih7mHSlUXILgsfd-214" value="Khuyến mãi" style="rounded=0;whiteSpace=wrap;html=1;" parent="1" vertex="1">
          <mxGeometry x="-416" y="28" width="76" height="30" as="geometry" />
        </mxCell>
        <mxCell id="VNiQXih7mHSlUXILgsfd-217" value="tinhTrang" style="ellipse;whiteSpace=wrap;html=1;" parent="1" vertex="1">
          <mxGeometry x="-500" y="-82" width="70" height="20" as="geometry" />
        </mxCell>
        <mxCell id="VNiQXih7mHSlUXILgsfd-218" style="rounded=0;orthogonalLoop=1;jettySize=auto;html=1;exitX=0.5;exitY=0;exitDx=0;exitDy=0;endArrow=none;endFill=0;entryX=0.5;entryY=1;entryDx=0;entryDy=0;" parent="1" source="VNiQXih7mHSlUXILgsfd-214" target="VNiQXih7mHSlUXILgsfd-217" edge="1">
          <mxGeometry relative="1" as="geometry">
            <mxPoint x="-368" y="38" as="sourcePoint" />
            <mxPoint x="-375" y="-72" as="targetPoint" />
          </mxGeometry>
        </mxCell>
        <mxCell id="VNiQXih7mHSlUXILgsfd-219" value="ngayKT" style="ellipse;whiteSpace=wrap;html=1;" parent="1" vertex="1">
          <mxGeometry x="-330" y="-82" width="70" height="20" as="geometry" />
        </mxCell>
        <mxCell id="VNiQXih7mHSlUXILgsfd-221" value="tenKM" style="ellipse;whiteSpace=wrap;html=1;fontStyle=0" parent="1" vertex="1">
          <mxGeometry x="-415" y="-82" width="70" height="20" as="geometry" />
        </mxCell>
        <mxCell id="VNiQXih7mHSlUXILgsfd-222" value="&lt;b&gt;&lt;u&gt;maKM&lt;/u&gt;&lt;/b&gt;" style="ellipse;whiteSpace=wrap;html=1;" parent="1" vertex="1">
          <mxGeometry x="-460" y="-102" width="70" height="20" as="geometry" />
        </mxCell>
        <mxCell id="VNiQXih7mHSlUXILgsfd-223" style="rounded=0;orthogonalLoop=1;jettySize=auto;html=1;exitX=0.5;exitY=0;exitDx=0;exitDy=0;endArrow=none;endFill=0;entryX=0.5;entryY=1;entryDx=0;entryDy=0;" parent="1" source="VNiQXih7mHSlUXILgsfd-214" target="VNiQXih7mHSlUXILgsfd-222" edge="1">
          <mxGeometry relative="1" as="geometry">
            <mxPoint x="-368" y="38" as="sourcePoint" />
            <mxPoint x="-535" y="-62" as="targetPoint" />
          </mxGeometry>
        </mxCell>
        <mxCell id="VNiQXih7mHSlUXILgsfd-224" style="rounded=0;orthogonalLoop=1;jettySize=auto;html=1;exitX=0.5;exitY=0;exitDx=0;exitDy=0;endArrow=none;endFill=0;entryX=0.5;entryY=1;entryDx=0;entryDy=0;" parent="1" source="VNiQXih7mHSlUXILgsfd-214" target="VNiQXih7mHSlUXILgsfd-221" edge="1">
          <mxGeometry relative="1" as="geometry">
            <mxPoint x="-368" y="38" as="sourcePoint" />
            <mxPoint x="-505" y="-122" as="targetPoint" />
          </mxGeometry>
        </mxCell>
        <mxCell id="VNiQXih7mHSlUXILgsfd-226" style="rounded=0;orthogonalLoop=1;jettySize=auto;html=1;endArrow=none;endFill=0;entryX=0.5;entryY=1;entryDx=0;entryDy=0;exitX=0.5;exitY=0;exitDx=0;exitDy=0;" parent="1" source="VNiQXih7mHSlUXILgsfd-214" target="VNiQXih7mHSlUXILgsfd-219" edge="1">
          <mxGeometry relative="1" as="geometry">
            <mxPoint x="-380" y="28" as="sourcePoint" />
            <mxPoint x="-340" y="-37" as="targetPoint" />
          </mxGeometry>
        </mxCell>
        <mxCell id="VNiQXih7mHSlUXILgsfd-246" value="&lt;u&gt;&lt;b&gt;maSP&lt;/b&gt;&lt;/u&gt;" style="ellipse;whiteSpace=wrap;html=1;" parent="1" vertex="1">
          <mxGeometry x="34" y="-100" width="70" height="20" as="geometry" />
        </mxCell>
        <mxCell id="VNiQXih7mHSlUXILgsfd-247" style="rounded=0;orthogonalLoop=1;jettySize=auto;html=1;exitX=0.5;exitY=0;exitDx=0;exitDy=0;endArrow=none;endFill=0;entryX=0.5;entryY=1;entryDx=0;entryDy=0;" parent="1" source="VNiQXih7mHSlUXILgsfd-248" target="VNiQXih7mHSlUXILgsfd-246" edge="1">
          <mxGeometry relative="1" as="geometry">
            <mxPoint x="-8" y="-250" as="targetPoint" />
          </mxGeometry>
        </mxCell>
        <mxCell id="jtjuj6bYvUF1e3qMRkPQ-55" style="edgeStyle=orthogonalEdgeStyle;rounded=0;orthogonalLoop=1;jettySize=auto;html=1;exitX=1;exitY=0.5;exitDx=0;exitDy=0;entryX=0.5;entryY=1;entryDx=0;entryDy=0;endArrow=none;endFill=0;" parent="1" source="VNiQXih7mHSlUXILgsfd-248" target="jtjuj6bYvUF1e3qMRkPQ-56" edge="1">
          <mxGeometry relative="1" as="geometry">
            <mxPoint x="150" y="45.16666666666674" as="targetPoint" />
          </mxGeometry>
        </mxCell>
        <mxCell id="VNiQXih7mHSlUXILgsfd-248" value="CT_Khuyến mãi" style="rounded=0;whiteSpace=wrap;html=1;" parent="1" vertex="1">
          <mxGeometry x="-14" y="30" width="76" height="30" as="geometry" />
        </mxCell>
        <mxCell id="VNiQXih7mHSlUXILgsfd-249" value="donViGiam" style="ellipse;whiteSpace=wrap;html=1;" parent="1" vertex="1">
          <mxGeometry x="-56" y="-100" width="70" height="20" as="geometry" />
        </mxCell>
        <mxCell id="VNiQXih7mHSlUXILgsfd-250" style="rounded=0;orthogonalLoop=1;jettySize=auto;html=1;exitX=0.5;exitY=0;exitDx=0;exitDy=0;entryX=0.5;entryY=1;entryDx=0;entryDy=0;endArrow=none;endFill=0;" parent="1" source="VNiQXih7mHSlUXILgsfd-248" target="VNiQXih7mHSlUXILgsfd-249" edge="1">
          <mxGeometry relative="1" as="geometry">
            <mxPoint x="42" y="20" as="sourcePoint" />
          </mxGeometry>
        </mxCell>
        <mxCell id="VNiQXih7mHSlUXILgsfd-251" value="giaTriGiam" style="ellipse;whiteSpace=wrap;html=1;" parent="1" vertex="1">
          <mxGeometry x="69" y="-80" width="70" height="20" as="geometry" />
        </mxCell>
        <mxCell id="VNiQXih7mHSlUXILgsfd-252" style="rounded=0;orthogonalLoop=1;jettySize=auto;html=1;exitX=0.5;exitY=0;exitDx=0;exitDy=0;endArrow=none;endFill=0;entryX=0.5;entryY=1;entryDx=0;entryDy=0;" parent="1" source="VNiQXih7mHSlUXILgsfd-248" target="VNiQXih7mHSlUXILgsfd-251" edge="1">
          <mxGeometry relative="1" as="geometry">
            <mxPoint x="34" y="40" as="sourcePoint" />
            <mxPoint x="27" y="-70" as="targetPoint" />
          </mxGeometry>
        </mxCell>
        <mxCell id="VNiQXih7mHSlUXILgsfd-254" value="tinhTrang" style="ellipse;whiteSpace=wrap;html=1;" parent="1" vertex="1">
          <mxGeometry x="-91" y="-80" width="70" height="20" as="geometry" />
        </mxCell>
        <mxCell id="VNiQXih7mHSlUXILgsfd-256" value="&lt;b&gt;&lt;u&gt;maKM&lt;/u&gt;&lt;/b&gt;" style="ellipse;whiteSpace=wrap;html=1;" parent="1" vertex="1">
          <mxGeometry x="-14" y="-80" width="70" height="20" as="geometry" />
        </mxCell>
        <mxCell id="VNiQXih7mHSlUXILgsfd-257" style="rounded=0;orthogonalLoop=1;jettySize=auto;html=1;exitX=0.5;exitY=0;exitDx=0;exitDy=0;endArrow=none;endFill=0;entryX=0.5;entryY=1;entryDx=0;entryDy=0;" parent="1" source="VNiQXih7mHSlUXILgsfd-248" target="VNiQXih7mHSlUXILgsfd-256" edge="1">
          <mxGeometry relative="1" as="geometry">
            <mxPoint x="34" y="40" as="sourcePoint" />
            <mxPoint x="-133" y="-60" as="targetPoint" />
          </mxGeometry>
        </mxCell>
        <mxCell id="VNiQXih7mHSlUXILgsfd-259" style="rounded=0;orthogonalLoop=1;jettySize=auto;html=1;exitX=0.5;exitY=0;exitDx=0;exitDy=0;endArrow=none;endFill=0;entryX=0.5;entryY=1;entryDx=0;entryDy=0;" parent="1" source="VNiQXih7mHSlUXILgsfd-248" target="VNiQXih7mHSlUXILgsfd-254" edge="1">
          <mxGeometry relative="1" as="geometry">
            <mxPoint x="34" y="40" as="sourcePoint" />
            <mxPoint x="27" y="-70" as="targetPoint" />
          </mxGeometry>
        </mxCell>
        <mxCell id="jtjuj6bYvUF1e3qMRkPQ-1" value="" style="endArrow=none;html=1;rounded=0;entryX=0;entryY=0.5;entryDx=0;entryDy=0;exitX=1;exitY=0.5;exitDx=0;exitDy=0;" parent="1" source="jtjuj6bYvUF1e3qMRkPQ-2" target="VNiQXih7mHSlUXILgsfd-130" edge="1">
          <mxGeometry width="50" height="50" relative="1" as="geometry">
            <mxPoint x="-480" y="-205" as="sourcePoint" />
            <mxPoint x="-580" y="-190" as="targetPoint" />
          </mxGeometry>
        </mxCell>
        <mxCell id="jtjuj6bYvUF1e3qMRkPQ-2" value="Có" style="rhombus;whiteSpace=wrap;html=1;" parent="1" vertex="1">
          <mxGeometry x="-590" y="-223.5" width="34" height="37.5" as="geometry" />
        </mxCell>
        <mxCell id="jtjuj6bYvUF1e3qMRkPQ-4" value="" style="endArrow=none;html=1;rounded=0;exitX=1;exitY=0.5;exitDx=0;exitDy=0;entryX=0;entryY=0.5;entryDx=0;entryDy=0;" parent="1" source="VNiQXih7mHSlUXILgsfd-115" target="jtjuj6bYvUF1e3qMRkPQ-2" edge="1">
          <mxGeometry width="50" height="50" relative="1" as="geometry">
            <mxPoint x="-630" y="-140" as="sourcePoint" />
            <mxPoint x="-580" y="-190" as="targetPoint" />
          </mxGeometry>
        </mxCell>
        <mxCell id="jtjuj6bYvUF1e3qMRkPQ-5" value="(1,n)" style="text;html=1;align=center;verticalAlign=middle;resizable=0;points=[];autosize=1;strokeColor=none;fillColor=none;" parent="1" vertex="1">
          <mxGeometry x="-655" y="-232" width="50" height="30" as="geometry" />
        </mxCell>
        <mxCell id="jtjuj6bYvUF1e3qMRkPQ-6" value="(1,1)" style="text;html=1;align=center;verticalAlign=middle;resizable=0;points=[];autosize=1;strokeColor=none;fillColor=none;" parent="1" vertex="1">
          <mxGeometry x="-468" y="-232" width="50" height="30" as="geometry" />
        </mxCell>
        <mxCell id="jtjuj6bYvUF1e3qMRkPQ-8" value="" style="endArrow=none;html=1;rounded=0;entryX=0;entryY=0.5;entryDx=0;entryDy=0;exitX=1;exitY=0.5;exitDx=0;exitDy=0;" parent="1" source="jtjuj6bYvUF1e3qMRkPQ-9" target="WMZ8hW9LC4fwCxA7XKCm-14" edge="1">
          <mxGeometry width="50" height="50" relative="1" as="geometry">
            <mxPoint x="-110" y="-195" as="sourcePoint" />
            <mxPoint x="-48" y="-195" as="targetPoint" />
          </mxGeometry>
        </mxCell>
        <mxCell id="jtjuj6bYvUF1e3qMRkPQ-9" value="Thuộc" style="rhombus;whiteSpace=wrap;html=1;" parent="1" vertex="1">
          <mxGeometry x="-243" y="-222.5" width="70" height="37.5" as="geometry" />
        </mxCell>
        <mxCell id="jtjuj6bYvUF1e3qMRkPQ-10" value="" style="endArrow=none;html=1;rounded=0;exitX=1;exitY=0.5;exitDx=0;exitDy=0;entryX=0;entryY=0.5;entryDx=0;entryDy=0;" parent="1" source="VNiQXih7mHSlUXILgsfd-130" target="jtjuj6bYvUF1e3qMRkPQ-9" edge="1">
          <mxGeometry width="50" height="50" relative="1" as="geometry">
            <mxPoint x="-284" y="-195" as="sourcePoint" />
            <mxPoint x="-210" y="-180" as="targetPoint" />
          </mxGeometry>
        </mxCell>
        <mxCell id="jtjuj6bYvUF1e3qMRkPQ-11" value="(1,n)" style="text;html=1;align=center;verticalAlign=middle;resizable=0;points=[];autosize=1;strokeColor=none;fillColor=none;" parent="1" vertex="1">
          <mxGeometry x="-76" y="-228" width="50" height="30" as="geometry" />
        </mxCell>
        <mxCell id="jtjuj6bYvUF1e3qMRkPQ-12" value="(1,1)" style="text;html=1;align=center;verticalAlign=middle;resizable=0;points=[];autosize=1;strokeColor=none;fillColor=none;" parent="1" vertex="1">
          <mxGeometry x="-345" y="-232" width="50" height="30" as="geometry" />
        </mxCell>
        <mxCell id="jtjuj6bYvUF1e3qMRkPQ-13" value="" style="endArrow=none;html=1;rounded=0;exitX=1;exitY=0.5;exitDx=0;exitDy=0;entryX=0;entryY=0.5;entryDx=0;entryDy=0;" parent="1" source="jtjuj6bYvUF1e3qMRkPQ-14" target="VNiQXih7mHSlUXILgsfd-160" edge="1">
          <mxGeometry width="50" height="50" relative="1" as="geometry">
            <mxPoint x="310" y="-185" as="sourcePoint" />
            <mxPoint x="300" y="-206" as="targetPoint" />
          </mxGeometry>
        </mxCell>
        <mxCell id="jtjuj6bYvUF1e3qMRkPQ-14" value="Thuộc" style="rhombus;whiteSpace=wrap;html=1;" parent="1" vertex="1">
          <mxGeometry x="170" y="-221.75" width="70" height="37.5" as="geometry" />
        </mxCell>
        <mxCell id="jtjuj6bYvUF1e3qMRkPQ-15" value="" style="endArrow=none;html=1;rounded=0;exitX=1;exitY=0.5;exitDx=0;exitDy=0;entryX=0;entryY=0.5;entryDx=0;entryDy=0;" parent="1" source="WMZ8hW9LC4fwCxA7XKCm-14" target="jtjuj6bYvUF1e3qMRkPQ-14" edge="1">
          <mxGeometry width="50" height="50" relative="1" as="geometry">
            <mxPoint x="78" y="-195" as="sourcePoint" />
            <mxPoint x="210" y="-170" as="targetPoint" />
          </mxGeometry>
        </mxCell>
        <mxCell id="jtjuj6bYvUF1e3qMRkPQ-16" value="(1,n)" style="text;html=1;align=center;verticalAlign=middle;resizable=0;points=[];autosize=1;strokeColor=none;fillColor=none;" parent="1" vertex="1">
          <mxGeometry x="61" y="-232" width="50" height="30" as="geometry" />
        </mxCell>
        <mxCell id="jtjuj6bYvUF1e3qMRkPQ-17" value="(1,1)" style="text;html=1;align=center;verticalAlign=middle;resizable=0;points=[];autosize=1;strokeColor=none;fillColor=none;" parent="1" vertex="1">
          <mxGeometry x="274" y="-228" width="50" height="30" as="geometry" />
        </mxCell>
        <mxCell id="jtjuj6bYvUF1e3qMRkPQ-19" value="" style="endArrow=none;html=1;rounded=0;exitX=0.5;exitY=1;exitDx=0;exitDy=0;entryX=0.5;entryY=0;entryDx=0;entryDy=0;" parent="1" source="jtjuj6bYvUF1e3qMRkPQ-20" target="VNiQXih7mHSlUXILgsfd-145" edge="1">
          <mxGeometry width="50" height="50" relative="1" as="geometry">
            <mxPoint x="670" y="-175" as="sourcePoint" />
            <mxPoint x="679" y="-193" as="targetPoint" />
          </mxGeometry>
        </mxCell>
        <mxCell id="jtjuj6bYvUF1e3qMRkPQ-20" value="Có" style="rhombus;whiteSpace=wrap;html=1;" parent="1" vertex="1">
          <mxGeometry x="340.25" y="-60" width="37.5" height="32.5" as="geometry" />
        </mxCell>
        <mxCell id="jtjuj6bYvUF1e3qMRkPQ-21" value="" style="endArrow=none;html=1;rounded=0;exitX=0.5;exitY=1;exitDx=0;exitDy=0;entryX=0.5;entryY=0;entryDx=0;entryDy=0;" parent="1" source="VNiQXih7mHSlUXILgsfd-160" target="jtjuj6bYvUF1e3qMRkPQ-20" edge="1">
          <mxGeometry width="50" height="50" relative="1" as="geometry">
            <mxPoint x="420" y="-193" as="sourcePoint" />
            <mxPoint x="570" y="-160" as="targetPoint" />
          </mxGeometry>
        </mxCell>
        <mxCell id="jtjuj6bYvUF1e3qMRkPQ-22" value="(1,1)" style="text;html=1;align=center;verticalAlign=middle;resizable=0;points=[];autosize=1;strokeColor=none;fillColor=none;" parent="1" vertex="1">
          <mxGeometry x="362" y="-125" width="50" height="30" as="geometry" />
        </mxCell>
        <mxCell id="jtjuj6bYvUF1e3qMRkPQ-23" value="(1,n)" style="text;html=1;align=center;verticalAlign=middle;resizable=0;points=[];autosize=1;strokeColor=none;fillColor=none;" parent="1" vertex="1">
          <mxGeometry x="364" y="36" width="50" height="30" as="geometry" />
        </mxCell>
        <mxCell id="jtjuj6bYvUF1e3qMRkPQ-25" value="" style="endArrow=none;html=1;rounded=0;entryX=0;entryY=0.5;entryDx=0;entryDy=0;exitX=1;exitY=0.5;exitDx=0;exitDy=0;" parent="1" source="jtjuj6bYvUF1e3qMRkPQ-26" target="VNiQXih7mHSlUXILgsfd-115" edge="1">
          <mxGeometry width="50" height="50" relative="1" as="geometry">
            <mxPoint x="-820" y="-195" as="sourcePoint" />
            <mxPoint x="-758" y="-195" as="targetPoint" />
          </mxGeometry>
        </mxCell>
        <mxCell id="jtjuj6bYvUF1e3qMRkPQ-26" value="Lập" style="rhombus;whiteSpace=wrap;html=1;" parent="1" vertex="1">
          <mxGeometry x="-930" y="-226" width="50" height="44" as="geometry" />
        </mxCell>
        <mxCell id="jtjuj6bYvUF1e3qMRkPQ-27" value="" style="endArrow=none;html=1;rounded=0;exitX=1;exitY=0.5;exitDx=0;exitDy=0;entryX=0;entryY=0.5;entryDx=0;entryDy=0;" parent="1" source="WMZ8hW9LC4fwCxA7XKCm-1" target="jtjuj6bYvUF1e3qMRkPQ-26" edge="1">
          <mxGeometry width="50" height="50" relative="1" as="geometry">
            <mxPoint x="-994" y="-195" as="sourcePoint" />
            <mxPoint x="-920" y="-180" as="targetPoint" />
          </mxGeometry>
        </mxCell>
        <mxCell id="jtjuj6bYvUF1e3qMRkPQ-28" value="(1,n)" style="text;html=1;align=center;verticalAlign=middle;resizable=0;points=[];autosize=1;strokeColor=none;fillColor=none;" parent="1" vertex="1">
          <mxGeometry x="-1046.5" y="-228" width="50" height="30" as="geometry" />
        </mxCell>
        <mxCell id="jtjuj6bYvUF1e3qMRkPQ-29" value="(1,1)" style="text;html=1;align=center;verticalAlign=middle;resizable=0;points=[];autosize=1;strokeColor=none;fillColor=none;" parent="1" vertex="1">
          <mxGeometry x="-773" y="-228" width="50" height="30" as="geometry" />
        </mxCell>
        <mxCell id="jtjuj6bYvUF1e3qMRkPQ-31" value="(1,n)" style="text;html=1;align=center;verticalAlign=middle;resizable=0;points=[];autosize=1;strokeColor=none;fillColor=none;" parent="1" vertex="1">
          <mxGeometry x="-857.5" y="-6" width="50" height="30" as="geometry" />
        </mxCell>
        <mxCell id="jtjuj6bYvUF1e3qMRkPQ-34" value="Có" style="shape=rhombus;perimeter=rhombusPerimeter;whiteSpace=wrap;html=1;align=center;" parent="1" vertex="1">
          <mxGeometry x="334" y="265" width="50" height="20" as="geometry" />
        </mxCell>
        <mxCell id="jtjuj6bYvUF1e3qMRkPQ-35" value="(1,1)" style="text;html=1;align=center;verticalAlign=middle;resizable=0;points=[];autosize=1;strokeColor=none;fillColor=none;" parent="1" vertex="1">
          <mxGeometry x="362" y="195" width="50" height="30" as="geometry" />
        </mxCell>
        <mxCell id="jtjuj6bYvUF1e3qMRkPQ-36" value="(1,n)" style="text;html=1;align=center;verticalAlign=middle;resizable=0;points=[];autosize=1;strokeColor=none;fillColor=none;" parent="1" vertex="1">
          <mxGeometry x="364" y="310" width="50" height="30" as="geometry" />
        </mxCell>
        <mxCell id="jtjuj6bYvUF1e3qMRkPQ-37" value="" style="endArrow=none;html=1;rounded=0;entryX=0;entryY=0.5;entryDx=0;entryDy=0;exitX=1;exitY=0.5;exitDx=0;exitDy=0;" parent="1" source="jtjuj6bYvUF1e3qMRkPQ-41" target="WMZ8hW9LC4fwCxA7XKCm-9" edge="1">
          <mxGeometry width="50" height="50" relative="1" as="geometry">
            <mxPoint x="-1033" y="25.000000000000227" as="sourcePoint" />
            <mxPoint x="-870" y="95" as="targetPoint" />
          </mxGeometry>
        </mxCell>
        <mxCell id="jtjuj6bYvUF1e3qMRkPQ-39" value="" style="endArrow=none;html=1;rounded=0;exitX=1;exitY=0.5;exitDx=0;exitDy=0;entryX=0;entryY=0.5;entryDx=0;entryDy=0;shape=link;" parent="1" source="VNiQXih7mHSlUXILgsfd-84" target="jtjuj6bYvUF1e3qMRkPQ-41" edge="1">
          <mxGeometry width="50" height="50" relative="1" as="geometry">
            <mxPoint x="-1180" y="96" as="sourcePoint" />
            <mxPoint x="-1083" y="25.000000000000227" as="targetPoint" />
          </mxGeometry>
        </mxCell>
        <mxCell id="jtjuj6bYvUF1e3qMRkPQ-40" value="(1,1)" style="text;html=1;align=center;verticalAlign=middle;resizable=0;points=[];autosize=1;strokeColor=none;fillColor=none;" parent="1" vertex="1">
          <mxGeometry x="-1155" y="-2" width="50" height="30" as="geometry" />
        </mxCell>
        <mxCell id="jtjuj6bYvUF1e3qMRkPQ-41" value="Có" style="shape=rhombus;double=1;perimeter=rhombusPerimeter;whiteSpace=wrap;html=1;align=center;" parent="1" vertex="1">
          <mxGeometry x="-1077.5" y="10" width="40" height="30" as="geometry" />
        </mxCell>
        <mxCell id="jtjuj6bYvUF1e3qMRkPQ-43" value="(1,1)" style="text;html=1;align=center;verticalAlign=middle;resizable=0;points=[];autosize=1;strokeColor=none;fillColor=none;" parent="1" vertex="1">
          <mxGeometry x="-385" y="-192" width="50" height="30" as="geometry" />
        </mxCell>
        <mxCell id="jtjuj6bYvUF1e3qMRkPQ-44" value="(1,n)" style="text;html=1;align=center;verticalAlign=middle;resizable=0;points=[];autosize=1;strokeColor=none;fillColor=none;" parent="1" vertex="1">
          <mxGeometry x="-385" y="66" width="50" height="30" as="geometry" />
        </mxCell>
        <mxCell id="jtjuj6bYvUF1e3qMRkPQ-48" style="edgeStyle=orthogonalEdgeStyle;rounded=0;orthogonalLoop=1;jettySize=auto;html=1;exitX=0.5;exitY=1;exitDx=0;exitDy=0;entryX=0.5;entryY=1;entryDx=0;entryDy=0;endArrow=none;endFill=0;" parent="1" source="jtjuj6bYvUF1e3qMRkPQ-45" target="VNiQXih7mHSlUXILgsfd-214" edge="1">
          <mxGeometry relative="1" as="geometry">
            <Array as="points">
              <mxPoint x="-550" y="80" />
              <mxPoint x="-378" y="80" />
            </Array>
          </mxGeometry>
        </mxCell>
        <mxCell id="jtjuj6bYvUF1e3qMRkPQ-50" style="edgeStyle=orthogonalEdgeStyle;rounded=0;orthogonalLoop=1;jettySize=auto;html=1;exitX=0.5;exitY=0;exitDx=0;exitDy=0;entryX=0.5;entryY=1;entryDx=0;entryDy=0;endArrow=none;endFill=0;" parent="1" source="jtjuj6bYvUF1e3qMRkPQ-45" target="VNiQXih7mHSlUXILgsfd-130" edge="1">
          <mxGeometry relative="1" as="geometry">
            <Array as="points">
              <mxPoint x="-550" y="-150" />
              <mxPoint x="-380" y="-150" />
            </Array>
          </mxGeometry>
        </mxCell>
        <mxCell id="jtjuj6bYvUF1e3qMRkPQ-45" value="Có" style="shape=rhombus;perimeter=rhombusPerimeter;whiteSpace=wrap;html=1;align=center;" parent="1" vertex="1">
          <mxGeometry x="-580" y="-110" width="60" height="40" as="geometry" />
        </mxCell>
        <mxCell id="jtjuj6bYvUF1e3qMRkPQ-52" value="" style="endArrow=none;html=1;rounded=0;exitX=1;exitY=0.5;exitDx=0;exitDy=0;entryX=0.047;entryY=0.517;entryDx=0;entryDy=0;entryPerimeter=0;" parent="1" source="VNiQXih7mHSlUXILgsfd-214" target="jtjuj6bYvUF1e3qMRkPQ-53" edge="1">
          <mxGeometry relative="1" as="geometry">
            <mxPoint x="-320" y="-90" as="sourcePoint" />
            <mxPoint x="-220" y="25" as="targetPoint" />
          </mxGeometry>
        </mxCell>
        <mxCell id="jtjuj6bYvUF1e3qMRkPQ-54" style="edgeStyle=orthogonalEdgeStyle;rounded=0;orthogonalLoop=1;jettySize=auto;html=1;exitX=1;exitY=0.5;exitDx=0;exitDy=0;entryX=0;entryY=0.5;entryDx=0;entryDy=0;endArrow=none;endFill=0;" parent="1" source="jtjuj6bYvUF1e3qMRkPQ-53" target="VNiQXih7mHSlUXILgsfd-248" edge="1">
          <mxGeometry relative="1" as="geometry">
            <Array as="points">
              <mxPoint x="-160" y="45" />
            </Array>
          </mxGeometry>
        </mxCell>
        <mxCell id="jtjuj6bYvUF1e3qMRkPQ-53" value="Có" style="shape=rhombus;perimeter=rhombusPerimeter;whiteSpace=wrap;html=1;align=center;" parent="1" vertex="1">
          <mxGeometry x="-195" y="28" width="36" height="30" as="geometry" />
        </mxCell>
        <mxCell id="jtjuj6bYvUF1e3qMRkPQ-57" style="edgeStyle=orthogonalEdgeStyle;rounded=0;orthogonalLoop=1;jettySize=auto;html=1;exitX=0.5;exitY=0;exitDx=0;exitDy=0;entryX=0.5;entryY=1;entryDx=0;entryDy=0;endArrow=none;endFill=0;" parent="1" source="jtjuj6bYvUF1e3qMRkPQ-56" target="WMZ8hW9LC4fwCxA7XKCm-14" edge="1">
          <mxGeometry relative="1" as="geometry">
            <Array as="points">
              <mxPoint x="182" y="-150" />
              <mxPoint x="22" y="-150" />
            </Array>
          </mxGeometry>
        </mxCell>
        <mxCell id="jtjuj6bYvUF1e3qMRkPQ-56" value="Có" style="shape=rhombus;perimeter=rhombusPerimeter;whiteSpace=wrap;html=1;align=center;" parent="1" vertex="1">
          <mxGeometry x="154" y="-66" width="56" height="36" as="geometry" />
        </mxCell>
        <mxCell id="jtjuj6bYvUF1e3qMRkPQ-59" value="(1,n)" style="text;html=1;align=center;verticalAlign=middle;resizable=0;points=[];autosize=1;strokeColor=none;fillColor=none;" parent="1" vertex="1">
          <mxGeometry x="-345" y="8" width="50" height="30" as="geometry" />
        </mxCell>
        <mxCell id="jtjuj6bYvUF1e3qMRkPQ-60" value="(1,1)" style="text;html=1;align=center;verticalAlign=middle;resizable=0;points=[];autosize=1;strokeColor=none;fillColor=none;" parent="1" vertex="1">
          <mxGeometry x="-68" y="8" width="50" height="30" as="geometry" />
        </mxCell>
        <mxCell id="jtjuj6bYvUF1e3qMRkPQ-61" value="(1,1)" style="text;html=1;align=center;verticalAlign=middle;resizable=0;points=[];autosize=1;strokeColor=none;fillColor=none;" parent="1" vertex="1">
          <mxGeometry x="55" y="8" width="50" height="30" as="geometry" />
        </mxCell>
        <mxCell id="jtjuj6bYvUF1e3qMRkPQ-62" value="(1,n)" style="text;html=1;align=center;verticalAlign=middle;resizable=0;points=[];autosize=1;strokeColor=none;fillColor=none;" parent="1" vertex="1">
          <mxGeometry x="15" y="-182" width="50" height="30" as="geometry" />
        </mxCell>
        <mxCell id="jtjuj6bYvUF1e3qMRkPQ-67" value="(1,1)" style="text;html=1;align=center;verticalAlign=middle;resizable=0;points=[];autosize=1;strokeColor=none;fillColor=none;" parent="1" vertex="1">
          <mxGeometry x="-1025" y="235" width="50" height="30" as="geometry" />
        </mxCell>
        <mxCell id="jtjuj6bYvUF1e3qMRkPQ-69" value="(1,n)" style="text;html=1;align=center;verticalAlign=middle;resizable=0;points=[];autosize=1;strokeColor=none;fillColor=none;" parent="1" vertex="1">
          <mxGeometry x="-8" y="-410" width="50" height="30" as="geometry" />
        </mxCell>
        <mxCell id="jtjuj6bYvUF1e3qMRkPQ-70" value="(1,1)" style="text;html=1;align=center;verticalAlign=middle;resizable=0;points=[];autosize=1;strokeColor=none;fillColor=none;" parent="1" vertex="1">
          <mxGeometry x="-19" y="-282" width="50" height="30" as="geometry" />
        </mxCell>
        <mxCell id="jtjuj6bYvUF1e3qMRkPQ-72" style="edgeStyle=orthogonalEdgeStyle;rounded=0;orthogonalLoop=1;jettySize=auto;html=1;exitX=0.5;exitY=0;exitDx=0;exitDy=0;entryX=0.5;entryY=1;entryDx=0;entryDy=0;endArrow=none;endFill=0;" parent="1" source="jtjuj6bYvUF1e3qMRkPQ-71" target="VNiQXih7mHSlUXILgsfd-203" edge="1">
          <mxGeometry relative="1" as="geometry">
            <mxPoint x="80" y="-430" as="targetPoint" />
          </mxGeometry>
        </mxCell>
        <mxCell id="jtjuj6bYvUF1e3qMRkPQ-71" value="Có" style="shape=rhombus;perimeter=rhombusPerimeter;whiteSpace=wrap;html=1;align=center;" parent="1" vertex="1">
          <mxGeometry x="-24.5" y="-372" width="45" height="22" as="geometry" />
        </mxCell>
        <mxCell id="jtjuj6bYvUF1e3qMRkPQ-89" value="(1,1)" style="text;html=1;align=center;verticalAlign=middle;resizable=0;points=[];autosize=1;strokeColor=none;fillColor=none;" parent="1" vertex="1">
          <mxGeometry x="-450" y="-189" width="50" height="30" as="geometry" />
        </mxCell>
        <mxCell id="jtjuj6bYvUF1e3qMRkPQ-102" value="giaNhap" style="ellipse;whiteSpace=wrap;html=1;" parent="1" vertex="1">
          <mxGeometry x="-152" y="-240" width="70" height="20" as="geometry" />
        </mxCell>
        <mxCell id="jtjuj6bYvUF1e3qMRkPQ-103" style="rounded=0;orthogonalLoop=1;jettySize=auto;html=1;exitX=0.5;exitY=0;exitDx=0;exitDy=0;entryX=1;entryY=0.5;entryDx=0;entryDy=0;endArrow=none;endFill=0;" parent="1" source="WMZ8hW9LC4fwCxA7XKCm-14" target="jtjuj6bYvUF1e3qMRkPQ-102" edge="1">
          <mxGeometry relative="1" as="geometry">
            <mxPoint x="-102" y="-150" as="sourcePoint" />
          </mxGeometry>
        </mxCell>
        <mxCell id="ZNOoHa3367mbnBqfAmgz-3" style="rounded=0;orthogonalLoop=1;jettySize=auto;html=1;exitX=0.5;exitY=0;exitDx=0;exitDy=0;endArrow=none;endFill=0;entryX=0.5;entryY=1;entryDx=0;entryDy=0;" parent="1" source="WMZ8hW9LC4fwCxA7XKCm-9" target="ZNOoHa3367mbnBqfAmgz-4" edge="1">
          <mxGeometry relative="1" as="geometry">
            <mxPoint x="-980.75" y="10" as="sourcePoint" />
            <mxPoint x="-943.25" y="-250" as="targetPoint" />
          </mxGeometry>
        </mxCell>
        <mxCell id="ZNOoHa3367mbnBqfAmgz-4" value="gioiTinh" style="ellipse;whiteSpace=wrap;html=1;" parent="1" vertex="1">
          <mxGeometry x="-1068.25" y="-100" width="70" height="20" as="geometry" />
        </mxCell>
        <mxCell id="cgN9Iw8YrtdKEzGWlK0k-1" style="rounded=0;orthogonalLoop=1;jettySize=auto;html=1;exitX=0.5;exitY=0;exitDx=0;exitDy=0;endArrow=none;endFill=0;entryX=0.5;entryY=1;entryDx=0;entryDy=0;" parent="1" source="VNiQXih7mHSlUXILgsfd-98" target="cgN9Iw8YrtdKEzGWlK0k-2" edge="1">
          <mxGeometry relative="1" as="geometry">
            <mxPoint x="-808.5" y="240" as="sourcePoint" />
            <mxPoint x="-616.5" y="280" as="targetPoint" />
          </mxGeometry>
        </mxCell>
        <mxCell id="cgN9Iw8YrtdKEzGWlK0k-2" value="qLyTK" style="ellipse;whiteSpace=wrap;html=1;" parent="1" vertex="1">
          <mxGeometry x="-979.5" y="170" width="70" height="20" as="geometry" />
        </mxCell>
        <mxCell id="cgN9Iw8YrtdKEzGWlK0k-3" style="rounded=0;orthogonalLoop=1;jettySize=auto;html=1;exitX=0.5;exitY=0;exitDx=0;exitDy=0;endArrow=none;endFill=0;entryX=0.5;entryY=1;entryDx=0;entryDy=0;" parent="1" source="VNiQXih7mHSlUXILgsfd-98" target="cgN9Iw8YrtdKEzGWlK0k-4" edge="1">
          <mxGeometry relative="1" as="geometry">
            <mxPoint x="-1036" y="270" as="sourcePoint" />
            <mxPoint x="-834" y="280" as="targetPoint" />
          </mxGeometry>
        </mxCell>
        <mxCell id="cgN9Iw8YrtdKEzGWlK0k-4" value="qLyKM" style="ellipse;whiteSpace=wrap;html=1;" parent="1" vertex="1">
          <mxGeometry x="-1265" y="175" width="70" height="20" as="geometry" />
        </mxCell>
        <mxCell id="8GgHvHOYtWzaIOht-Npv-1" value="thanhTien" style="ellipse;whiteSpace=wrap;html=1;" parent="1" vertex="1">
          <mxGeometry x="456.5" y="-300" width="70" height="20" as="geometry" />
        </mxCell>
        <mxCell id="8GgHvHOYtWzaIOht-Npv-2" style="rounded=0;orthogonalLoop=1;jettySize=auto;html=1;endArrow=none;endFill=0;entryX=0.5;entryY=1;entryDx=0;entryDy=0;exitX=0.75;exitY=0;exitDx=0;exitDy=0;" parent="1" source="VNiQXih7mHSlUXILgsfd-160" target="8GgHvHOYtWzaIOht-Npv-1" edge="1">
          <mxGeometry relative="1" as="geometry">
            <mxPoint x="360" y="-220" as="sourcePoint" />
            <mxPoint x="447" y="-296" as="targetPoint" />
          </mxGeometry>
        </mxCell>
        <mxCell id="8GgHvHOYtWzaIOht-Npv-3" value="diaChi" style="ellipse;whiteSpace=wrap;html=1;" parent="1" vertex="1">
          <mxGeometry x="-813" y="-50" width="70" height="20" as="geometry" />
        </mxCell>
        <mxCell id="8GgHvHOYtWzaIOht-Npv-4" style="rounded=0;orthogonalLoop=1;jettySize=auto;html=1;exitX=0.75;exitY=0;exitDx=0;exitDy=0;endArrow=none;endFill=0;entryX=0.5;entryY=1;entryDx=0;entryDy=0;" parent="1" source="WMZ8hW9LC4fwCxA7XKCm-9" target="8GgHvHOYtWzaIOht-Npv-3" edge="1">
          <mxGeometry relative="1" as="geometry">
            <mxPoint x="-890" y="20" as="sourcePoint" />
            <mxPoint x="-783" y="-70" as="targetPoint" />
          </mxGeometry>
        </mxCell>
        <mxCell id="8GgHvHOYtWzaIOht-Npv-5" value="tenQuyen" style="ellipse;whiteSpace=wrap;html=1;" parent="1" vertex="1">
          <mxGeometry x="-1278" y="215" width="70" height="20" as="geometry" />
        </mxCell>
        <mxCell id="8GgHvHOYtWzaIOht-Npv-6" style="rounded=0;orthogonalLoop=1;jettySize=auto;html=1;exitX=0;exitY=0.5;exitDx=0;exitDy=0;endArrow=none;endFill=0;entryX=1;entryY=0.5;entryDx=0;entryDy=0;" parent="1" source="VNiQXih7mHSlUXILgsfd-98" target="8GgHvHOYtWzaIOht-Npv-5" edge="1">
          <mxGeometry relative="1" as="geometry">
            <mxPoint x="-1040" y="256" as="sourcePoint" />
            <mxPoint x="-1220" y="205" as="targetPoint" />
          </mxGeometry>
        </mxCell>
        <mxCell id="8GgHvHOYtWzaIOht-Npv-8" value="" style="endArrow=none;html=1;rounded=0;exitX=0.5;exitY=1;exitDx=0;exitDy=0;entryX=0.5;entryY=0;entryDx=0;entryDy=0;" parent="1" source="VNiQXih7mHSlUXILgsfd-145" target="jtjuj6bYvUF1e3qMRkPQ-34" edge="1">
          <mxGeometry width="50" height="50" relative="1" as="geometry">
            <mxPoint x="456.5" y="213" as="sourcePoint" />
            <mxPoint x="456.5" y="370" as="targetPoint" />
          </mxGeometry>
        </mxCell>
        <mxCell id="8GgHvHOYtWzaIOht-Npv-9" value="" style="endArrow=none;html=1;rounded=0;exitX=0.5;exitY=1;exitDx=0;exitDy=0;entryX=0.5;entryY=0;entryDx=0;entryDy=0;" parent="1" source="jtjuj6bYvUF1e3qMRkPQ-34" target="VNiQXih7mHSlUXILgsfd-186" edge="1">
          <mxGeometry width="50" height="50" relative="1" as="geometry">
            <mxPoint x="436.5" y="305" as="sourcePoint" />
            <mxPoint x="436.5" y="410" as="targetPoint" />
          </mxGeometry>
        </mxCell>
        <mxCell id="8GgHvHOYtWzaIOht-Npv-10" value="" style="endArrow=none;html=1;rounded=0;exitX=0;exitY=0.5;exitDx=0;exitDy=0;entryX=1;entryY=0.5;entryDx=0;entryDy=0;" parent="1" source="VNiQXih7mHSlUXILgsfd-145" target="8GgHvHOYtWzaIOht-Npv-11" edge="1">
          <mxGeometry width="50" height="50" relative="1" as="geometry">
            <mxPoint x="-196" y="160" as="sourcePoint" />
            <mxPoint x="-196" y="265" as="targetPoint" />
          </mxGeometry>
        </mxCell>
        <mxCell id="8GgHvHOYtWzaIOht-Npv-11" value="Lập" style="shape=rhombus;perimeter=rhombusPerimeter;whiteSpace=wrap;html=1;align=center;" parent="1" vertex="1">
          <mxGeometry x="-270" y="130" width="36" height="30" as="geometry" />
        </mxCell>
        <mxCell id="8GgHvHOYtWzaIOht-Npv-12" value="" style="endArrow=none;html=1;rounded=0;exitX=0;exitY=0.5;exitDx=0;exitDy=0;entryX=1;entryY=1;entryDx=0;entryDy=0;" parent="1" source="8GgHvHOYtWzaIOht-Npv-11" target="WMZ8hW9LC4fwCxA7XKCm-9" edge="1">
          <mxGeometry width="50" height="50" relative="1" as="geometry">
            <mxPoint x="-326.5" y="119" as="sourcePoint" />
            <mxPoint x="-881.5" y="119" as="targetPoint" />
            <Array as="points">
              <mxPoint x="-862" y="140" />
            </Array>
          </mxGeometry>
        </mxCell>
        <mxCell id="8GgHvHOYtWzaIOht-Npv-13" value="(1,n)" style="text;html=1;align=center;verticalAlign=middle;resizable=0;points=[];autosize=1;strokeColor=none;fillColor=none;" parent="1" vertex="1">
          <mxGeometry x="-590" y="155" width="50" height="30" as="geometry" />
        </mxCell>
        <mxCell id="8GgHvHOYtWzaIOht-Npv-14" value="(1,1)" style="text;html=1;align=center;verticalAlign=middle;resizable=0;points=[];autosize=1;strokeColor=none;fillColor=none;" parent="1" vertex="1">
          <mxGeometry x="44" y="145" width="50" height="30" as="geometry" />
        </mxCell>
        <mxCell id="dNB9NVAF_Y6qCy_vTv6B-1" value="Màu sắc" style="rounded=0;whiteSpace=wrap;html=1;" vertex="1" parent="1">
          <mxGeometry x="69" y="-440" width="76" height="30" as="geometry" />
        </mxCell>
        <mxCell id="dNB9NVAF_Y6qCy_vTv6B-2" value="Kích cỡ" style="rounded=0;whiteSpace=wrap;html=1;" vertex="1" parent="1">
          <mxGeometry x="-152" y="-440" width="76" height="30" as="geometry" />
        </mxCell>
        <mxCell id="dNB9NVAF_Y6qCy_vTv6B-3" value="tenMau" style="ellipse;whiteSpace=wrap;html=1;" vertex="1" parent="1">
          <mxGeometry x="51" y="-500" width="70" height="20" as="geometry" />
        </mxCell>
        <mxCell id="dNB9NVAF_Y6qCy_vTv6B-4" value="&lt;b&gt;&lt;u&gt;maMau&lt;/u&gt;&lt;/b&gt;" style="ellipse;whiteSpace=wrap;html=1;" vertex="1" parent="1">
          <mxGeometry x="105" y="-530" width="70" height="20" as="geometry" />
        </mxCell>
        <mxCell id="dNB9NVAF_Y6qCy_vTv6B-5" value="tinhTrang" style="ellipse;whiteSpace=wrap;html=1;" vertex="1" parent="1">
          <mxGeometry x="170" y="-500" width="70" height="20" as="geometry" />
        </mxCell>
        <mxCell id="dNB9NVAF_Y6qCy_vTv6B-6" style="rounded=0;orthogonalLoop=1;jettySize=auto;html=1;exitX=0.5;exitY=0;exitDx=0;exitDy=0;endArrow=none;endFill=0;entryX=0.5;entryY=1;entryDx=0;entryDy=0;" edge="1" parent="1" source="dNB9NVAF_Y6qCy_vTv6B-1" target="dNB9NVAF_Y6qCy_vTv6B-5">
          <mxGeometry relative="1" as="geometry">
            <mxPoint x="8" y="-430" as="sourcePoint" />
            <mxPoint x="50" y="-520" as="targetPoint" />
          </mxGeometry>
        </mxCell>
        <mxCell id="dNB9NVAF_Y6qCy_vTv6B-7" style="rounded=0;orthogonalLoop=1;jettySize=auto;html=1;exitX=0.5;exitY=0;exitDx=0;exitDy=0;endArrow=none;endFill=0;entryX=0.5;entryY=1;entryDx=0;entryDy=0;" edge="1" parent="1" source="dNB9NVAF_Y6qCy_vTv6B-1" target="dNB9NVAF_Y6qCy_vTv6B-4">
          <mxGeometry relative="1" as="geometry">
            <mxPoint x="117" y="-430" as="sourcePoint" />
            <mxPoint x="215" y="-470" as="targetPoint" />
          </mxGeometry>
        </mxCell>
        <mxCell id="dNB9NVAF_Y6qCy_vTv6B-8" style="rounded=0;orthogonalLoop=1;jettySize=auto;html=1;exitX=0.5;exitY=0;exitDx=0;exitDy=0;endArrow=none;endFill=0;entryX=0.5;entryY=1;entryDx=0;entryDy=0;" edge="1" parent="1" source="dNB9NVAF_Y6qCy_vTv6B-1" target="dNB9NVAF_Y6qCy_vTv6B-3">
          <mxGeometry relative="1" as="geometry">
            <mxPoint x="117" y="-430" as="sourcePoint" />
            <mxPoint x="150" y="-500" as="targetPoint" />
          </mxGeometry>
        </mxCell>
        <mxCell id="dNB9NVAF_Y6qCy_vTv6B-9" style="edgeStyle=orthogonalEdgeStyle;rounded=0;orthogonalLoop=1;jettySize=auto;html=1;entryX=0.5;entryY=0;entryDx=0;entryDy=0;exitX=0.5;exitY=1;exitDx=0;exitDy=0;endArrow=none;endFill=0;" edge="1" parent="1" source="dNB9NVAF_Y6qCy_vTv6B-11" target="WMZ8hW9LC4fwCxA7XKCm-14">
          <mxGeometry relative="1" as="geometry">
            <mxPoint x="93.5" y="-362" as="sourcePoint" />
            <Array as="points">
              <mxPoint x="85" y="-302" />
              <mxPoint x="31" y="-302" />
              <mxPoint x="31" y="-218" />
            </Array>
            <mxPoint x="31" y="-240" as="targetPoint" />
          </mxGeometry>
        </mxCell>
        <mxCell id="dNB9NVAF_Y6qCy_vTv6B-10" style="edgeStyle=orthogonalEdgeStyle;rounded=0;orthogonalLoop=1;jettySize=auto;html=1;exitX=0.5;exitY=0;exitDx=0;exitDy=0;entryX=0.5;entryY=1;entryDx=0;entryDy=0;endArrow=none;endFill=0;" edge="1" parent="1" source="dNB9NVAF_Y6qCy_vTv6B-11" target="dNB9NVAF_Y6qCy_vTv6B-1">
          <mxGeometry relative="1" as="geometry">
            <mxPoint x="8" y="-400" as="targetPoint" />
          </mxGeometry>
        </mxCell>
        <mxCell id="dNB9NVAF_Y6qCy_vTv6B-11" value="Có" style="shape=rhombus;perimeter=rhombusPerimeter;whiteSpace=wrap;html=1;align=center;" vertex="1" parent="1">
          <mxGeometry x="62" y="-360" width="45" height="20" as="geometry" />
        </mxCell>
        <mxCell id="dNB9NVAF_Y6qCy_vTv6B-12" value="(1,n)" style="text;html=1;align=center;verticalAlign=middle;resizable=0;points=[];autosize=1;strokeColor=none;fillColor=none;" vertex="1" parent="1">
          <mxGeometry x="89" y="-390" width="50" height="30" as="geometry" />
        </mxCell>
        <mxCell id="dNB9NVAF_Y6qCy_vTv6B-13" value="(1,1)" style="text;html=1;align=center;verticalAlign=middle;resizable=0;points=[];autosize=1;strokeColor=none;fillColor=none;" vertex="1" parent="1">
          <mxGeometry x="25" y="-331" width="50" height="30" as="geometry" />
        </mxCell>
        <mxCell id="dNB9NVAF_Y6qCy_vTv6B-14" value="&lt;b&gt;&lt;u&gt;maMau&lt;/u&gt;&lt;/b&gt;" style="ellipse;whiteSpace=wrap;html=1;" vertex="1" parent="1">
          <mxGeometry x="-195" y="-500" width="70" height="20" as="geometry" />
        </mxCell>
        <mxCell id="dNB9NVAF_Y6qCy_vTv6B-15" value="tinhTrang" style="ellipse;whiteSpace=wrap;html=1;" vertex="1" parent="1">
          <mxGeometry x="-265" y="-480" width="70" height="20" as="geometry" />
        </mxCell>
        <mxCell id="dNB9NVAF_Y6qCy_vTv6B-16" value="tenMau" style="ellipse;whiteSpace=wrap;html=1;" vertex="1" parent="1">
          <mxGeometry x="-110" y="-500" width="70" height="20" as="geometry" />
        </mxCell>
        <mxCell id="dNB9NVAF_Y6qCy_vTv6B-17" style="rounded=0;orthogonalLoop=1;jettySize=auto;html=1;exitX=0.5;exitY=0;exitDx=0;exitDy=0;endArrow=none;endFill=0;entryX=0.5;entryY=1;entryDx=0;entryDy=0;" edge="1" parent="1" source="dNB9NVAF_Y6qCy_vTv6B-2" target="dNB9NVAF_Y6qCy_vTv6B-16">
          <mxGeometry relative="1" as="geometry">
            <mxPoint x="8" y="-430" as="sourcePoint" />
            <mxPoint x="-28" y="-520" as="targetPoint" />
          </mxGeometry>
        </mxCell>
        <mxCell id="dNB9NVAF_Y6qCy_vTv6B-18" style="rounded=0;orthogonalLoop=1;jettySize=auto;html=1;exitX=0.5;exitY=0;exitDx=0;exitDy=0;endArrow=none;endFill=0;entryX=0.5;entryY=1;entryDx=0;entryDy=0;" edge="1" parent="1" source="dNB9NVAF_Y6qCy_vTv6B-2" target="dNB9NVAF_Y6qCy_vTv6B-14">
          <mxGeometry relative="1" as="geometry">
            <mxPoint x="-104" y="-430" as="sourcePoint" />
            <mxPoint x="-75" y="-450" as="targetPoint" />
          </mxGeometry>
        </mxCell>
        <mxCell id="dNB9NVAF_Y6qCy_vTv6B-19" style="rounded=0;orthogonalLoop=1;jettySize=auto;html=1;exitX=0.5;exitY=0;exitDx=0;exitDy=0;endArrow=none;endFill=0;entryX=0.5;entryY=1;entryDx=0;entryDy=0;" edge="1" parent="1" source="dNB9NVAF_Y6qCy_vTv6B-2" target="dNB9NVAF_Y6qCy_vTv6B-15">
          <mxGeometry relative="1" as="geometry">
            <mxPoint x="-104" y="-430" as="sourcePoint" />
            <mxPoint x="-150" y="-470" as="targetPoint" />
          </mxGeometry>
        </mxCell>
      </root>
    </mxGraphModel>
  </diagram>
</mxfile>
